<svg width="34" height="34" viewBox="0 0 34 34" fill="none" xmlns="http://www.w3.org/2000/svg">
<path d="M16.7757 33.5514C26.0406 33.5514 33.5514 26.0406 33.5514 16.7757C33.5514 7.51073 26.0406 0 16.7757 0C7.51073 0 0 7.51073 0 16.7757C0 26.0406 7.51073 33.5514 16.7757 33.5514Z" fill="#4285F4"/>
<path d="M16.9428 15.5763V18.4531H21.7002C21.5069 19.6883 20.2619 22.0704 16.9428 22.0704C14.0791 22.0704 11.743 19.7014 11.743 16.7755C11.743 13.8496 14.0824 11.4807 16.9428 11.4807C18.5712 11.4807 19.6623 12.1721 20.2881 12.7717L22.562 10.5797C21.1006 9.21665 19.2068 8.3877 16.9428 8.3877C12.3065 8.3877 8.55493 12.1393 8.55493 16.7755C8.55493 21.4118 12.3065 25.1634 16.9428 25.1634C21.7854 25.1634 24.9964 21.7591 24.9964 16.9656C24.9964 16.4151 24.9374 15.9925 24.8653 15.5763H16.9428Z" fill="white"/>
</svg>
