<svg width="22" height="22" viewBox="0 0 22 22" fill="none" xmlns="http://www.w3.org/2000/svg">
<path d="M11 22C17.0751 22 22 17.0751 22 11C22 4.92487 17.0751 0 11 0C4.92487 0 0 4.92487 0 11C0 17.0751 4.92487 22 11 22Z" fill="#1376F8"/>
<path d="M11.1095 10.2137V12.1H14.2291C14.1023 12.91 13.2859 14.4719 11.1095 14.4719C9.23181 14.4719 7.69997 12.9186 7.69997 11C7.69997 9.08145 9.23396 7.52812 11.1095 7.52812C12.1773 7.52812 12.8927 7.98145 13.3031 8.37461L14.7941 6.9373C13.8359 6.04355 12.5941 5.5 11.1095 5.5C8.0695 5.5 5.60954 7.95996 5.60954 11C5.60954 14.04 8.0695 16.5 11.1095 16.5C14.2849 16.5 16.3904 14.2678 16.3904 11.1246C16.3904 10.7637 16.3517 10.4865 16.3045 10.2137H11.1095Z" fill="white"/>
</svg>
