<svg width="34" height="33" viewBox="0 0 34 33" fill="none" xmlns="http://www.w3.org/2000/svg">
<path d="M9.8995 22.7689C5.99415 19.0703 5.99415 13.0742 9.8995 9.37564C13.8048 5.6771 20.1363 5.67709 24.0416 9.37564C27.9463 13.0735 27.947 19.0703 24.0416 22.7689C20.1363 26.4674 13.8041 26.4668 9.8995 22.7689ZM11.3137 21.4296C12.814 22.8504 14.8488 23.6486 16.9706 23.6486C19.0923 23.6486 21.1271 22.8504 22.6274 21.4296C24.1277 20.0087 24.9706 18.0816 24.9706 16.0723C24.9706 14.0629 24.1277 12.1358 22.6274 10.715C21.1271 9.29412 19.0923 8.4959 16.9706 8.4959C14.8488 8.4959 12.814 9.29412 11.3137 10.715C9.81342 12.1358 8.97057 14.0629 8.97057 16.0723C8.97057 18.0816 9.81342 20.0087 11.3137 21.4296ZM11.3844 15.1254H15.9707V10.7819C15.9587 10.1504 16.2917 9.83503 16.9706 9.83503C17.6494 9.83503 17.9824 10.1504 17.9704 10.7819V15.1254H22.5567C23.2228 15.1254 23.5559 15.4408 23.5566 16.0723C23.5559 16.7038 23.2228 17.0192 22.5567 17.0192H17.9704V21.3626C17.986 21.9934 17.6522 22.3095 16.9706 22.3095C16.2889 22.3095 15.9552 21.9934 15.9707 21.3626V17.0192H11.3844C10.7183 17.0205 10.3846 16.7044 10.3846 16.0723C10.3846 15.4401 10.7183 15.124 11.3844 15.1254Z" fill="#011632"/>
</svg>
