<svg width="34" height="34" viewBox="0 0 34 34" fill="none" xmlns="http://www.w3.org/2000/svg">
<path d="M9.8995 23.7015C5.99415 20.003 5.99415 14.0068 9.8995 10.3083C13.8048 6.60971 20.1363 6.60971 24.0416 10.3083C27.9463 14.0061 27.947 20.003 24.0416 23.7015C20.1363 27.4001 13.8041 27.3994 9.8995 23.7015ZM11.3137 22.3622C12.814 23.783 14.8488 24.5812 16.9706 24.5812C19.0923 24.5812 21.1271 23.783 22.6274 22.3622C24.1277 20.9413 24.9706 19.0143 24.9706 17.0049C24.9706 14.9955 24.1277 13.0684 22.6274 11.6476C21.1271 10.2267 19.0923 9.42852 16.9706 9.42852C14.8488 9.42852 12.814 10.2267 11.3137 11.6476C9.81342 13.0684 8.97057 14.9955 8.97057 17.0049C8.97057 19.0143 9.81342 20.9413 11.3137 22.3622ZM11.3844 16.058H15.9707V11.7145C15.9587 11.0831 16.2917 10.7676 16.9706 10.7676C17.6494 10.7676 17.9824 11.0831 17.9704 11.7145V16.058H22.5567C23.2228 16.058 23.5559 16.3734 23.5566 17.0049C23.5559 17.6364 23.2228 17.9518 22.5567 17.9518H17.9704V22.2952C17.986 22.926 17.6522 23.2421 16.9706 23.2421C16.2889 23.2421 15.9552 22.926 15.9707 22.2952V17.9518H11.3844C10.7183 17.9531 10.3846 17.637 10.3846 17.0049C10.3846 16.3727 10.7183 16.0566 11.3844 16.058Z" fill="#011632"/>
</svg>
