<svg width="34" height="33" viewBox="0 0 34 33" fill="none" xmlns="http://www.w3.org/2000/svg">
<path d="M9.8995 23.0746C5.99415 19.376 5.99415 13.3799 9.8995 9.6813C13.8048 5.98276 20.1363 5.98276 24.0416 9.6813C27.9463 13.3792 27.947 19.376 24.0416 23.0746C20.1363 26.7731 13.8041 26.7724 9.8995 23.0746ZM11.3137 21.7352C12.814 23.1561 14.8488 23.9543 16.9706 23.9543C19.0923 23.9543 21.1271 23.1561 22.6274 21.7352C24.1277 20.3144 24.9706 18.3873 24.9706 16.3779C24.9706 14.3686 24.1277 12.4415 22.6274 11.0206C21.1271 9.59979 19.0923 8.80156 16.9706 8.80156C14.8488 8.80156 12.814 9.59979 11.3137 11.0206C9.81342 12.4415 8.97057 14.3686 8.97057 16.3779C8.97057 18.3873 9.81342 20.3144 11.3137 21.7352ZM11.3844 15.431H15.9707V11.0876C15.9587 10.4561 16.2917 10.1407 16.9706 10.1407C17.6494 10.1407 17.9824 10.4561 17.9704 11.0876V15.431H22.5567C23.2228 15.431 23.5559 15.7464 23.5566 16.3779C23.5559 17.0094 23.2228 17.3248 22.5567 17.3248H17.9704V21.6683C17.986 22.2991 17.6522 22.6152 16.9706 22.6152C16.2889 22.6152 15.9552 22.2991 15.9707 21.6683V17.3248H11.3844C10.7183 17.3262 10.3846 17.0101 10.3846 16.3779C10.3846 15.7458 10.7183 15.4297 11.3844 15.431Z" fill="#011632"/>
</svg>
