<svg width="96" height="44" viewBox="0 0 96 44" fill="none" xmlns="http://www.w3.org/2000/svg">
<rect width="96" height="44" fill="#011632"/>
<path d="M26.3331 21.582C26.3331 20.9492 27.0456 20.4262 27.9701 20.3434L28.2271 20.332L66.1059 20.332C67.1518 20.332 67.9998 20.8917 67.9998 21.582C67.9998 22.2149 67.2873 22.7378 66.3629 22.8206L66.1059 22.832L28.2271 22.832C27.1811 22.832 26.3331 22.2724 26.3331 21.582Z" fill="white"/>
<path d="M56.6181 12.3861C56.1289 11.899 56.1272 11.1076 56.6143 10.6184C57.0572 10.1737 57.7515 10.1318 58.2416 10.4939L58.3821 10.6146L68.4654 20.6546C68.9115 21.0987 68.9521 21.7956 68.5871 22.2857L68.4655 22.4261L58.3822 32.4677C57.893 32.9549 57.1016 32.9532 56.6144 32.4641C56.1716 32.0194 56.1326 31.3249 56.4968 30.8363L56.6181 30.6963L65.8115 21.5399L56.6181 12.3861Z" fill="white"/>
</svg>
