<svg width="1282" height="416" viewBox="0 0 1282 416" fill="none" xmlns="http://www.w3.org/2000/svg">
<path d="M1 282.758C16.0336 282.758 130.289 412.047 281.483 412.047C491.523 412.047 604.613 -58.9397 900.436 72.7177C1134.96 177.094 1238.05 188.261 1281 115.671" stroke="#E6F6FE"/>
<path d="M1 171.081C14.3154 180.96 130.289 412.047 281.483 412.047C491.523 412.047 638.976 -7.39526 934.799 124.262C1169.32 228.638 1206.26 211.886 1281 158.625" stroke="#E6F6FE"/>
<path d="M1 351.485C16.0336 351.485 130.289 415.485 281.483 415.485C491.523 415.485 607.067 -135.808 883.255 33.2026C1084.7 156.478 1203.68 205.444 1281 150.035" stroke="#E6F6FE"/>
</svg>
