<svg width="96" height="44" viewBox="0 0 96 44" fill="none" xmlns="http://www.w3.org/2000/svg">
<rect x="96" y="44" width="96" height="44" transform="rotate(-180 96 44)" fill="#011632"/>
<path d="M69.6669 22.418C69.6669 23.0508 68.9544 23.5738 68.0299 23.6566L67.7729 23.668L29.8941 23.668C28.8482 23.668 28.0002 23.1083 28.0002 22.418C28.0002 21.7851 28.7127 21.2621 29.6372 21.1794L29.8941 21.168L67.7729 21.168C68.8189 21.168 69.6669 21.7276 69.6669 22.418Z" fill="white"/>
<path d="M39.3819 31.6139C39.8711 32.101 39.8728 32.8924 39.3857 33.3816C38.9428 33.8263 38.2485 33.8682 37.7584 33.5061L37.6179 33.3854L27.5346 23.3454C27.0885 22.9013 27.0479 22.2044 27.4128 21.7143L27.5345 21.5739L37.6178 11.5323C38.107 11.0451 38.8984 11.0468 39.3856 11.5359C39.8284 11.9806 39.8674 12.6751 39.5032 13.1637L39.3819 13.3037L30.1885 22.4601L39.3819 31.6139Z" fill="white"/>
</svg>
