<svg width="2240" height="566" viewBox="0 0 2240 566" fill="none" xmlns="http://www.w3.org/2000/svg">
<path d="M2235.91 391.205C2209.67 390.956 2008.67 558.855 1744.8 556.353C1378.24 552.878 1186.74 -67.5212 668.833 100.484C258.245 233.676 78.1986 246.637 4.14111 150.596" stroke="#E6F6FE"/>
<path d="M2237.3 244.541C2213.94 257.295 2008.67 558.853 1744.8 556.352C1378.24 552.876 1126.13 -0.401011 608.223 167.605C197.634 300.797 133.376 278.186 3.60626 207.003" stroke="#E6F6FE"/>
<path d="M2235.05 481.457C2208.82 481.208 2008.62 563.367 1744.76 560.865C1378.2 557.389 1183.42 -168.514 699.31 48.8717C346.206 207.431 137.954 269.768 3.71322 195.722" stroke="#E6F6FE"/>
</svg>
