<svg width="24" height="23" viewBox="0 0 24 23" fill="none" xmlns="http://www.w3.org/2000/svg">
<path fill-rule="evenodd" clip-rule="evenodd" d="M12 3.45342C7.313 3.45342 3.5 7.063 3.5 11.5C3.5 15.9369 7.313 19.5465 12 19.5465C16.687 19.5465 20.5 15.9369 20.5 11.5C20.5 7.063 16.687 3.45342 12 3.45342ZM12 20.9665C6.486 20.9665 2 16.7198 2 11.5C2 6.28012 6.486 2.03345 12 2.03345C17.514 2.03345 22 6.28012 22 11.5C22 16.7198 17.514 20.9665 12 20.9665Z" fill="#011632"/>
<path fill-rule="evenodd" clip-rule="evenodd" d="M10.5586 15.4958C10.3666 15.4958 10.1736 15.4267 10.0276 15.2866C9.73558 15.0083 9.73658 14.5595 10.0296 14.2831L12.9816 11.5L10.0296 8.71776C9.73658 8.44134 9.73558 7.99168 10.0276 7.71337C10.3196 7.43411 10.7936 7.436 11.0876 7.71147L14.5736 10.9973C14.7146 11.1308 14.7936 11.3116 14.7936 11.5C14.7936 11.6893 14.7146 11.8701 14.5736 12.0036L11.0876 15.2885C10.9416 15.4267 10.7496 15.4958 10.5586 15.4958Z" fill="#011632"/>
</svg>
