<svg width="24" height="23" viewBox="0 0 24 23" fill="none" xmlns="http://www.w3.org/2000/svg">
<path fill-rule="evenodd" clip-rule="evenodd" d="M12 3.45293C7.313 3.45293 3.5 7.06251 3.5 11.4995C3.5 15.9364 7.313 19.546 12 19.546C16.687 19.546 20.5 15.9364 20.5 11.4995C20.5 7.06251 16.687 3.45293 12 3.45293ZM12 20.966C6.486 20.966 2 16.7193 2 11.4995C2 6.27963 6.486 2.03296 12 2.03296C17.514 2.03296 22 6.27963 22 11.4995C22 16.7193 17.514 20.966 12 20.966Z" fill="#011632"/>
<path fill-rule="evenodd" clip-rule="evenodd" d="M10.5586 15.4953C10.3666 15.4953 10.1736 15.4262 10.0276 15.2861C9.73558 15.0078 9.73658 14.5591 10.0296 14.2826L12.9816 11.4995L10.0296 8.71728C9.73658 8.44085 9.73558 7.99119 10.0276 7.71288C10.3196 7.43362 10.7936 7.43551 11.0876 7.71099L14.5736 10.9968C14.7146 11.1303 14.7936 11.3111 14.7936 11.4995C14.7936 11.6888 14.7146 11.8696 14.5736 12.0031L11.0876 15.288C10.9416 15.4262 10.7496 15.4953 10.5586 15.4953Z" fill="#011632"/>
</svg>
