<svg width="32" height="30" viewBox="0 0 32 30" fill="none" xmlns="http://www.w3.org/2000/svg">
<path fill-rule="evenodd" clip-rule="evenodd" d="M16 4.375C9.75066 4.375 4.66666 9.14125 4.66666 15C4.66666 20.8587 9.75066 25.625 16 25.625C22.2493 25.625 27.3333 20.8587 27.3333 15C27.3333 9.14125 22.2493 4.375 16 4.375ZM16 27.5C8.648 27.5 2.66666 21.8925 2.66666 15C2.66666 8.1075 8.648 2.5 16 2.5C23.352 2.5 29.3333 8.1075 29.3333 15C29.3333 21.8925 23.352 27.5 16 27.5Z" fill="#011632"/>
<path fill-rule="evenodd" clip-rule="evenodd" d="M14.0781 20.2763C13.8221 20.2763 13.5648 20.1851 13.3701 20.0001C12.9808 19.6326 12.9821 19.0401 13.3728 18.6751L17.3088 15.0001L13.3728 11.3263C12.9821 10.9613 12.9808 10.3676 13.3701 10.0001C13.7594 9.63131 14.3914 9.63381 14.7834 9.99756L19.4314 14.3363C19.6194 14.5126 19.7248 14.7513 19.7248 15.0001C19.7248 15.2501 19.6194 15.4888 19.4314 15.6651L14.7834 20.0026C14.5888 20.1851 14.3328 20.2763 14.0781 20.2763Z" fill="#011632"/>
</svg>
