<svg width="24" height="23" viewBox="0 0 24 23" fill="none" xmlns="http://www.w3.org/2000/svg">
<path fill-rule="evenodd" clip-rule="evenodd" d="M12 3.31304C7.313 3.31304 3.5 6.92262 3.5 11.3596C3.5 15.7965 7.313 19.4061 12 19.4061C16.687 19.4061 20.5 15.7965 20.5 11.3596C20.5 6.92262 16.687 3.31304 12 3.31304ZM12 20.8261C6.486 20.8261 2 16.5794 2 11.3596C2 6.13974 6.486 1.89307 12 1.89307C17.514 1.89307 22 6.13974 22 11.3596C22 16.5794 17.514 20.8261 12 20.8261Z" fill="#011632"/>
<path fill-rule="evenodd" clip-rule="evenodd" d="M10.5586 15.3554C10.3666 15.3554 10.1736 15.2863 10.0276 15.1462C9.73558 14.8679 9.73658 14.4192 10.0296 14.1427L12.9816 11.3596L10.0296 8.57738C9.73658 8.30096 9.73558 7.8513 10.0276 7.57299C10.3196 7.29372 10.7936 7.29562 11.0876 7.57109L14.5736 10.8569C14.7146 10.9904 14.7936 11.1712 14.7936 11.3596C14.7936 11.5489 14.7146 11.7297 14.5736 11.8632L11.0876 15.1481C10.9416 15.2863 10.7496 15.3554 10.5586 15.3554Z" fill="#011632"/>
</svg>
