<svg width="49" height="48" viewBox="0 0 49 48" fill="none" xmlns="http://www.w3.org/2000/svg">
<g clip-path="url(#clip0_1_334)">
<path d="M40.4598 4.91746C40.2807 4.57286 39.8559 4.43846 39.5116 4.61754C39.167 4.79661 39.0326 5.22105 39.2117 5.56565C40.1291 7.33151 40.3217 9.36105 39.7541 11.28C39.5278 12.0468 37.5396 18.7807 37.4528 19.115C37.4356 19.1817 37.3759 19.2286 37.3082 19.2286H20.7152C20.3267 19.2286 20.0121 19.5431 20.0121 19.9317C20.0121 20.3199 20.3267 20.6348 20.7152 20.6348H35.1746L34.7839 22.7834C34.7707 22.8544 34.7092 22.9057 34.637 22.9057H14.3776C14.3054 22.9057 14.2439 22.8544 14.2311 22.7834L13.84 20.6348H17.6533C18.0415 20.6348 18.3565 20.3199 18.3565 19.9317C18.3565 19.5431 18.0415 19.2286 17.6533 19.2286H11.7065C11.6387 19.2286 11.579 19.1821 11.5618 19.1154C11.56 19.1081 11.5578 19.1008 11.5559 19.0934L9.26055 11.28C8.56585 8.93038 9.00823 6.45737 10.4745 4.49449C11.9408 2.53197 14.1868 1.40624 16.6367 1.40624C17.3659 1.40624 18.0869 1.50805 18.7802 1.70873C22.5269 2.79381 26.4881 2.79381 30.2345 1.70873C30.9277 1.50805 31.6488 1.40624 32.3779 1.40624C34.2628 1.40624 36.0715 2.09032 37.4715 3.33251C37.7619 3.59032 38.2065 3.56395 38.4643 3.27355C38.7221 2.98278 38.6954 2.53856 38.405 2.28075C36.7475 0.810055 34.607 0 32.3779 0C31.5166 0 30.6637 0.120483 29.8434 0.357787C26.3526 1.36889 22.662 1.36889 19.1713 0.357787C18.351 0.120483 17.4981 0 16.6367 0C13.7389 0 11.0821 1.33154 9.3477 3.65294C7.61334 5.97434 7.09002 8.89962 7.9118 11.6773L10.2039 19.4805C10.3859 20.1609 11.0022 20.6348 11.7065 20.6348H12.4107L12.8476 23.0349C12.982 23.7751 13.6258 24.3119 14.3776 24.3119H17.4417L17.9382 28.5892L17.4428 28.7218C16.9301 28.8591 16.5016 29.188 16.2365 29.6476C15.971 30.1072 15.9007 30.6426 16.038 31.1549C16.2757 32.0415 17.0802 32.6274 17.9573 32.6274C18.1041 32.6274 18.2532 32.6099 18.4019 32.5758L18.6546 34.7514L17.9844 34.9313C16.9264 35.2147 16.2962 36.306 16.5796 37.3644C16.8173 38.2506 17.6218 38.8369 18.4989 38.8369C18.6688 38.8369 18.841 38.8149 19.0127 38.7688L19.1178 38.7406L19.3705 40.914L18.7966 41.0678C18.2839 41.2052 17.8558 41.534 17.5903 41.9936C17.3252 42.4532 17.2549 42.9882 17.3922 43.5009C17.5292 44.0133 17.858 44.4417 18.3176 44.7072C18.6238 44.8837 18.9633 44.9742 19.3075 44.9742C19.48 44.9742 19.6539 44.9515 19.825 44.9057L19.8341 44.9031L20.0256 46.5515C20.1212 47.3773 20.8207 48.0002 21.6523 48.0002H27.3626C28.1939 48.0002 28.8934 47.3773 28.9894 46.5515L29.4812 42.3184L30.2183 42.1207C31.276 41.8372 31.9062 40.7459 31.6228 39.688C31.4082 38.8874 30.731 38.3326 29.9558 38.2323L30.2433 35.7596L31.0306 35.5487C32.0882 35.2656 32.7185 34.1739 32.435 33.116C32.216 32.2986 31.5155 31.7372 30.7201 31.6544L31.0053 29.2012L31.5719 29.0496C32.6302 28.7658 33.2601 27.6744 32.9766 26.6165C32.7771 25.872 32.1776 25.3402 31.4712 25.1886L31.5733 24.3123H34.637C35.3892 24.3123 36.0327 23.7751 36.1674 23.0353L36.6043 20.6348H37.3082C38.0168 20.6348 38.636 20.1551 38.814 19.4684C38.8759 19.2297 40.2166 14.6791 41.1028 11.6788C41.7737 9.40939 41.5456 7.00815 40.4598 4.91746ZM27.5923 46.3889C27.5787 46.5057 27.4798 46.5936 27.3626 46.5936H21.652C21.5348 46.5936 21.4359 46.5057 21.4224 46.3889L21.207 44.5351L28.02 42.7095L27.5923 46.3889ZM30.2641 40.0516C30.3473 40.3607 30.1631 40.6793 29.854 40.7624L19.4609 43.5471C19.3112 43.5874 19.1548 43.5665 19.0208 43.4892C18.8864 43.4116 18.7904 43.2867 18.7505 43.1369C18.7102 42.9871 18.7307 42.8308 18.8084 42.6967C18.886 42.5623 19.0109 42.4664 19.1607 42.4261L29.5537 39.6414C29.6038 39.6279 29.654 39.6217 29.7038 39.6217C29.9598 39.6213 30.1949 39.7927 30.2641 40.0516ZM28.5129 38.4644L20.7434 40.5463L20.4911 38.3725L28.7817 36.1511L28.5129 38.4644ZM31.0767 33.4796C31.1595 33.7887 30.9753 34.1077 30.6662 34.1904L18.6487 37.4105C18.3396 37.4936 18.0206 37.3094 17.9379 37.0003C17.8551 36.6913 18.0393 36.3727 18.3484 36.2895L30.3659 33.0695C30.4161 33.0559 30.4666 33.0497 30.5161 33.0497C30.7724 33.0497 31.0075 33.2207 31.0767 33.4796ZM31.6184 26.9801C31.7011 27.2892 31.5169 27.6082 31.2078 27.6909L26.9115 28.8423C26.5365 28.9426 26.3138 29.3283 26.4145 29.7033C26.5149 30.0782 26.9001 30.3009 27.2755 30.2006L29.5438 29.5927L29.275 31.906L20.0275 34.3838L19.7752 32.2103L24.3154 30.9938C24.6908 30.8931 24.9131 30.5074 24.8127 30.1324C24.7124 29.7575 24.3268 29.5348 23.9514 29.6351L18.1071 31.2014C17.798 31.2842 17.4794 31.1 17.3963 30.7909C17.3563 30.6415 17.3768 30.4851 17.4545 30.3507C17.5318 30.2167 17.657 30.1204 17.8068 30.0804L30.9076 26.57C31.2166 26.4868 31.5356 26.6714 31.6184 26.9801ZM30.0371 25.3472L19.3115 28.2212L18.8574 24.3119H30.1576L30.0371 25.3472Z" fill="white"/>
<path d="M29.8434 4.10787C26.3527 5.11898 22.662 5.11898 19.1713 4.10787C18.7985 4.00021 18.4081 4.21481 18.3004 4.58797C18.1924 4.96077 18.407 5.35079 18.7802 5.45882C20.6533 6.00154 22.5803 6.2729 24.5073 6.2729C26.4343 6.2729 28.3613 6.00154 30.2345 5.45882C30.6076 5.35079 30.8226 4.96077 30.7146 4.58797C30.6066 4.21481 30.2162 4.00021 29.8434 4.10787Z" fill="white"/>
</g>
<defs>
<clipPath id="clip0_1_334">
<rect width="48" height="48" fill="white" transform="translate(0.5)"/>
</clipPath>
</defs>
</svg>
