<svg width="33" height="32" viewBox="0 0 33 32" fill="none" xmlns="http://www.w3.org/2000/svg">
<path fill-rule="evenodd" clip-rule="evenodd" d="M0.5 16C0.5 7.16344 7.66344 0 16.5 0C25.3366 0 32.5 7.16344 32.5 16C32.5 24.8366 25.3366 32 16.5 32C7.66344 32 0.5 24.8366 0.5 16ZM8.7 13.3V24H12.1V13.3H8.7ZM8.5 9.9C8.5 11 9.3 11.8 10.4 11.8C11.5 11.8 12.3 11 12.3 9.9C12.3 8.8 11.5 8 10.4 8C9.4 8 8.5 8.8 8.5 9.9ZM21.1 24H24.3V17.4C24.3 14.1 22.3 13 20.4 13C18.7 13 17.5 14.1 17.2 14.8V13.3H14V24H17.4V18.3C17.4 16.8 18.4 16 19.4 16C20.4 16 21.1 16.5 21.1 18.2V24Z" fill="#011632"/>
</svg>
