<svg width="48" height="48" viewBox="0 0 48 48" fill="none" xmlns="http://www.w3.org/2000/svg">
<path d="M41.2972 4.25101C40.1422 3.21901 38.8245 2.37901 37.3875 1.79851C35.9152 1.20376 34.3417 0.88726 32.7577 0.81076C32.4757 0.79726 32.193 0.79126 31.911 0.79126C30.4327 0.79501 28.9147 1.17901 27.519 1.90276C25.317 3.04501 22.6897 3.04426 20.4885 1.90276C19.0927 1.17901 17.574 0.79501 16.0965 0.79126C14.5057 0.79126 12.9157 1.00876 11.403 1.51126C9.93299 1.99951 8.55749 2.75026 7.34549 3.71401C7.12949 3.88576 6.91724 4.06501 6.71099 4.25026C3.65024 6.99301 2.01674 11.0925 2.22899 15.5003C2.43374 19.4895 3.75149 24.8228 8.73374 27.981C8.70524 29.0903 8.68274 30.2318 8.76074 31.386C8.81399 32.088 8.87474 32.8838 8.99924 33.6743C9.67424 38.0408 11.0062 42.9225 15.7657 46.0208C16.908 46.764 18.7552 47.841 20.004 46.6695C20.8755 45.8513 21.0937 44.376 21.1552 43.2398C21.1575 43.1865 21.4462 38.2965 24.0382 33.4635C25.0852 35.1908 26.7232 38.6258 27.303 43.8893C27.4657 45.3668 28.1025 47.2095 29.8935 47.2095C30.8257 47.2095 31.6702 46.6935 32.0062 46.4888C34.8247 44.769 36.7912 42.4305 38.0182 39.3413C39.483 35.6678 39.627 32.0948 39.3382 27.9465C44.2905 24.7703 45.5827 19.4633 45.7687 15.492C45.9922 11.0858 44.3617 6.98851 41.2972 4.25101ZM29.7435 23.5523C28.4655 22.653 26.6857 21.651 24.6435 20.9048C24.1965 20.7413 23.7967 20.6273 23.358 20.9048C21.321 21.6488 19.545 22.647 18.2685 23.5448C18.0465 20.6153 17.1885 17.6595 16.392 15.5145L21.714 16.896C23.3655 17.3258 25.1092 17.3153 26.7547 16.866L31.5907 15.5063C30.813 17.6745 29.9625 20.628 29.7435 23.5523ZM24.7927 30.6345C24.558 30.3743 24.219 30.2385 23.8672 30.2663C23.5185 30.294 23.202 30.483 23.0122 30.7778C19.2967 36.5318 18.924 42.8543 18.9105 43.119C18.9097 43.1273 18.9082 43.1348 18.9082 43.143C15.9667 36.0803 17.796 28.0328 18.1845 26.5193C18.612 26.004 20.9197 24.2183 24.0007 23.0655C27.1282 24.2355 29.4615 26.0603 29.8372 26.5433C30.2835 28.0125 32.5267 36.2213 29.5035 43.3613C28.4962 34.842 24.9457 30.8025 24.7927 30.6345ZM16.83 44.019C12.948 41.3933 11.8125 37.1498 11.2215 33.3255C11.1105 32.622 11.0535 31.8735 11.004 31.2225C10.9275 30.1013 10.9567 28.9845 10.9875 27.8003C11.004 27.1298 10.929 26.676 10.3125 26.3175C5.82074 23.7083 4.65674 18.9353 4.47449 15.3855C4.29524 11.661 5.65649 8.21176 8.21099 5.92276C9.75074 4.54276 11.6392 3.62176 13.6725 3.24826C15.6465 2.88601 17.643 2.95951 19.4512 3.89701C22.3005 5.37451 25.7032 5.37526 28.5532 3.89701C29.6317 3.33751 30.7942 3.04051 31.9155 3.03826C33.4912 3.03826 35.0655 3.29176 36.531 3.88126C37.7295 4.36351 38.8342 5.06176 39.7957 5.92426C42.351 8.20726 43.71 11.652 43.5225 15.3788C43.356 18.9518 42.1965 23.7548 37.6237 26.3685C37.287 26.5613 37.0147 27.03 37.0522 27.4418C37.38 31.5735 37.314 35.0355 35.9295 38.5073C35.016 40.8075 33.6202 42.615 31.6792 44.0078C33.8827 38.6355 33.7335 32.3828 32.2605 26.8343C31.3515 23.4113 32.5425 19.518 33.7072 16.2653C33.987 15.4845 33.8107 14.622 33.2475 14.0115C32.6782 13.398 31.8232 13.1528 31.02 13.3718L26.1615 14.694C24.8932 15.039 23.5507 15.0473 22.2772 14.7173L16.9552 13.3358C16.152 13.1265 15.3045 13.3785 14.7442 13.992C14.1877 14.6018 14.0152 15.4613 14.2935 16.236C15.405 19.3328 16.605 22.7985 15.951 26.1263C15.5122 28.3568 15.1087 30.543 15.0172 32.8253C14.9445 34.6433 15.0187 36.4695 15.276 38.271C15.4845 39.729 15.8175 41.1855 16.2877 42.582C16.2877 42.582 16.6207 43.761 16.83 44.019Z" fill="white" stroke="#25B4F8" stroke-width="0.7"/>
</svg>
