<svg width="33" height="27" viewBox="0 0 33 27" fill="none" xmlns="http://www.w3.org/2000/svg">
<g clip-path="url(#clip0_1_466)">
<path d="M18.8687 1.35847C17.3855 1.96434 15.6143 1.96419 14.1313 1.35847C7.72286 -1.25906 0.034668 2.42869 0.034668 8.11824C0.034668 11.6988 3.80229 26.5 9.69294 26.5C11.7593 26.5 13.6397 24.8392 15.4421 21.4227C15.8317 20.6842 17.1683 20.684 17.5579 21.4227C19.3602 24.8392 21.2407 26.5 23.307 26.5C29.1399 26.5 32.9653 11.8127 32.9653 8.11824C32.9652 2.43057 25.2797 -1.26018 18.8687 1.35847ZM23.3069 25.1451C22.0848 25.1451 20.5682 23.5989 19.1461 20.9027C18.1688 19.0503 14.8316 19.0494 13.8539 20.9028C12.4318 23.5988 10.9151 25.1451 9.69301 25.1451C5.92596 25.1451 1.75454 12.3228 1.75454 8.11834C1.75454 3.4368 8.08103 0.413732 13.3398 2.56148C15.3186 3.36972 17.6814 3.36972 19.6602 2.56148C24.9135 0.415814 31.2453 3.43238 31.2453 8.11834C31.2454 12.3048 27.0767 25.1451 23.3069 25.1451Z" fill="black"/>
<path d="M28.0923 7.44067C27.6175 7.44067 27.2324 7.74394 27.2324 8.1182C27.2324 9.24936 26.6421 12.4671 25.33 16.0789C25.1993 16.4385 25.4635 16.8137 25.92 16.9166C26.3746 17.0196 26.8523 16.8125 26.9833 16.4517C28.3413 12.7139 28.9521 9.32847 28.9521 8.11825C28.9523 7.74399 28.5672 7.44067 28.0923 7.44067Z" fill="black"/>
<path d="M9.69301 3.67041C6.58024 3.67041 4.04767 5.66566 4.04767 8.11815C4.04767 8.49241 4.43271 8.79568 4.90761 8.79568C5.3825 8.79568 5.76754 8.49241 5.76754 8.11815C5.76754 6.41281 7.52841 5.02546 9.69301 5.02546C10.1679 5.02546 10.5529 4.7222 10.5529 4.34794C10.5529 3.97368 10.1679 3.67041 9.69301 3.67041Z" fill="black"/>
</g>
<defs>
<clipPath id="clip0_1_466">
<rect width="33" height="26" fill="white" transform="translate(0 0.5)"/>
</clipPath>
</defs>
</svg>
