<svg width="34" height="26" viewBox="0 0 34 26" fill="none" xmlns="http://www.w3.org/2000/svg">
<g clip-path="url(#clip0_1_499)">
<path d="M19.3687 0.85847C17.8855 1.46434 16.1143 1.46419 14.6313 0.85847C8.22286 -1.75906 0.534668 1.92869 0.534668 7.61824C0.534668 11.1988 4.30229 26 10.1929 26C12.2593 26 14.1397 24.3392 15.9421 20.9227C16.3317 20.1842 17.6683 20.184 18.0579 20.9227C19.8602 24.3392 21.7407 26 23.807 26C29.6399 26 33.4653 11.3127 33.4653 7.61824C33.4652 1.93057 25.7797 -1.76018 19.3687 0.85847ZM23.8069 24.6451C22.5848 24.6451 21.0682 23.0989 19.6461 20.4027C18.6688 18.5503 15.3316 18.5494 14.3539 20.4028C12.9318 23.0988 11.4151 24.6451 10.193 24.6451C6.42596 24.6451 2.25454 11.8228 2.25454 7.61834C2.25454 2.9368 8.58103 -0.0862679 13.8398 2.06148C15.8186 2.86972 18.1814 2.86972 20.1602 2.06148C25.4135 -0.0841858 31.7453 2.93238 31.7453 7.61834C31.7454 11.8048 27.5767 24.6451 23.8069 24.6451Z" fill="black"/>
<path d="M28.5923 6.94067C28.1175 6.94067 27.7324 7.24394 27.7324 7.6182C27.7324 8.74936 27.1421 11.9671 25.83 15.5789C25.6993 15.9385 25.9635 16.3137 26.42 16.4166C26.8746 16.5196 27.3523 16.3125 27.4833 15.9517C28.8413 12.2139 29.4521 8.82847 29.4521 7.61825C29.4523 7.24399 29.0672 6.94067 28.5923 6.94067Z" fill="black"/>
<path d="M10.193 3.17041C7.08024 3.17041 4.54767 5.16566 4.54767 7.61815C4.54767 7.99241 4.93271 8.29568 5.40761 8.29568C5.8825 8.29568 6.26754 7.99241 6.26754 7.61815C6.26754 5.91281 8.02841 4.52546 10.193 4.52546C10.6679 4.52546 11.0529 4.2222 11.0529 3.84794C11.0529 3.47368 10.6679 3.17041 10.193 3.17041Z" fill="black"/>
</g>
<defs>
<clipPath id="clip0_1_499">
<rect width="33" height="26" fill="white" transform="translate(0.5)"/>
</clipPath>
</defs>
</svg>
