<svg width="20" height="20" viewBox="0 0 20 20" fill="none" xmlns="http://www.w3.org/2000/svg">
<path d="M19.4296 14.1327L15.0546 12.2577C14.8677 12.1781 14.6599 12.1613 14.4627 12.2099C14.2654 12.2585 14.0893 12.3699 13.9608 12.5272L12.0233 14.8944C8.98248 13.4607 6.53535 11.0137 5.10165 7.97294L7.46888 6.03544C7.62657 5.90719 7.73818 5.73105 7.78681 5.5337C7.83545 5.33635 7.81846 5.12852 7.73842 4.94169L5.86338 0.566687C5.77554 0.365284 5.62016 0.200845 5.42406 0.101725C5.22796 0.00260553 5.00341 -0.0249826 4.78915 0.0237181L0.726575 0.961218C0.519997 1.00892 0.335688 1.12523 0.203728 1.29117C0.0717689 1.45711 -4.75872e-05 1.66288 2.36575e-08 1.87489C2.36575e-08 11.8944 8.12123 19.9999 18.1253 19.9999C18.3374 20 18.5433 19.9282 18.7093 19.7963C18.8753 19.6643 18.9917 19.48 19.0394 19.2733L19.9769 15.2108C20.0253 14.9955 19.9971 14.7701 19.8972 14.5733C19.7973 14.3765 19.632 14.2207 19.4296 14.1327Z" fill="#CFCFCF"/>
</svg>
