<svg width="470" height="8" viewBox="0 0 470 8" fill="none" xmlns="http://www.w3.org/2000/svg">
<path fill-rule="evenodd" clip-rule="evenodd" d="M10.8043 1.40766C20.7657 1.86994 46.9448 1.89306 118.011 1.93928C228.984 2.00863 317.058 2.51713 341.536 3.25678C343.48 3.32613 187.924 3.83463 171.949 3.46481C147.045 2.86384 28.1152 3.37235 4.18349 4.06578C-2.61944 4.25069 -0.0683122 4.89789 4.36574 5.03657C11.2901 5.26771 29.8768 5.24459 80.8382 5.19837C116.675 5.17525 401.79 5.70688 432.95 6.65456C450.444 7.18618 461.073 7.67158 465.932 7.55601C470.002 7.46355 470.063 7.18618 466.54 6.42342C464.171 5.91491 466.843 5.61442 468.544 5.47574C471.156 5.2446 470.063 4.45872 466.783 3.83464C462.349 2.97941 454.695 3.00253 458.34 3.85775C459.129 4.04266 459.312 4.50494 456.518 4.41249C448.378 4.13512 390.857 2.23977 375.247 1.91617C208.575 -1.59717 45.9122 0.968487 11.4723 0.113265C-0.736484 -0.210332 4.85172 1.13029 10.8043 1.40766Z" fill="#25B4F8"/>
</svg>
