<svg width="266" height="11" viewBox="0 0 266 11" fill="none" xmlns="http://www.w3.org/2000/svg">
<path fill-rule="evenodd" clip-rule="evenodd" d="M6.11475 8.98193C11.7525 8.38333 26.5688 8.35339 66.7894 8.29353C129.595 8.20374 179.441 7.54528 193.295 6.58752C194.395 6.49773 106.357 5.83927 97.3157 6.31815C83.2214 7.09633 15.912 6.43787 2.36768 5.53996C-1.48249 5.30052 -0.0386618 4.46247 2.47082 4.28289C6.38973 3.98359 16.909 4.01353 45.751 4.07339C66.0331 4.10332 227.396 3.41492 245.031 2.18778C254.932 1.49939 260.948 0.870855 263.698 1.02051C266.001 1.14023 266.036 1.49939 264.042 2.48708C262.701 3.14555 264.214 3.53464 265.176 3.71422C266.654 4.01352 266.035 5.03115 264.179 5.83926C261.67 6.94668 257.338 6.91675 259.401 5.80933C259.848 5.56989 259.951 4.97129 258.37 5.09101C253.763 5.45017 221.209 7.90444 212.374 8.32346C118.045 12.8728 25.9843 9.55061 6.49286 10.658C-0.416819 11.077 2.74587 9.34109 6.11475 8.98193Z" fill="#25B4F8"/>
</svg>
