<svg width="215" height="6" viewBox="0 0 215 6" fill="none" xmlns="http://www.w3.org/2000/svg">
<path fill-rule="evenodd" clip-rule="evenodd" d="M4.94449 3.12158C9.49409 3.40154 21.4376 3.24406 53.8596 2.80416C104.488 2.11511 144.673 1.90813 155.849 2.29905C156.736 2.33804 85.7753 3.7579 78.4833 3.58738C67.1154 3.30325 12.8635 4.47854 1.95317 5.15807C-1.14839 5.34209 0.0225669 5.81013 2.04696 5.88447C5.20849 6.01148 13.6877 5.87004 36.9365 5.49509C53.2855 5.23847 183.365 3.73307 197.591 4.23529C205.577 4.51693 210.432 4.80976 212.647 4.69069C214.503 4.59422 214.528 4.38593 212.912 3.83775C211.826 3.47244 213.042 3.22938 213.816 3.11407C215.005 2.92339 214.498 2.34167 212.994 1.89582C210.962 1.28443 207.471 1.35286 209.143 1.96952C209.505 2.10284 209.593 2.44811 208.318 2.39747C204.601 2.24393 178.339 1.20744 171.214 1.06914C95.1373 -0.451186 20.9564 2.55798 5.23508 2.14696C-0.338301 1.98594 2.22582 2.95343 4.94449 3.12158Z" fill="#25B4F8"/>
</svg>
