<svg width="500" height="9" viewBox="0 0 500 9" fill="none" xmlns="http://www.w3.org/2000/svg">
<path fill-rule="evenodd" clip-rule="evenodd" d="M12.1796 7.37704C22.7618 6.90949 50.5728 6.8746 126.069 6.79643C243.96 6.67723 337.524 6.12837 363.528 5.37645C365.592 5.30612 200.339 4.86645 183.369 5.24408C156.913 5.85725 30.5687 5.40116 5.14475 4.71725C-2.08235 4.53507 0.627466 3.8856 5.33785 3.74468C12.6938 3.51004 32.4391 3.52486 86.5773 3.54833C124.648 3.55543 427.537 2.89508 460.639 1.93178C479.222 1.39139 490.514 0.900388 495.676 1.01398C500 1.10478 500.064 1.3826 496.322 2.14827C493.806 2.65873 496.645 2.95854 498.452 3.09671C501.227 3.32708 500.066 4.11482 496.582 4.74146C491.872 5.60016 483.741 5.58043 487.612 4.72209C488.451 4.5365 488.644 4.07333 485.676 4.1672C477.03 4.4487 415.924 6.37314 399.341 6.7043C222.281 10.2985 49.4763 7.80124 12.8901 8.67339C-0.0796784 9.00302 5.85618 7.65756 12.1796 7.37704Z" fill="#25B4F8"/>
</svg>
