<svg width="33" height="32" viewBox="0 0 33 32" fill="none" xmlns="http://www.w3.org/2000/svg">
<path d="M19.1 16L14.9 13.6V18.4L19.1 16Z" fill="#011632"/>
<path fill-rule="evenodd" clip-rule="evenodd" d="M0.5 16C0.5 7.16344 7.66344 0 16.5 0C25.3366 0 32.5 7.16344 32.5 16C32.5 24.8366 25.3366 32 16.5 32C7.66344 32 0.5 24.8366 0.5 16ZM22.7 10.7C23.4 10.9 23.9 11.4 24.1 12.1C24.5 13.4 24.5 16 24.5 16C24.5 16 24.5 18.6 24.2 19.9C24 20.6 23.5 21.1 22.8 21.3C21.5 21.6 16.5 21.6 16.5 21.6C16.5 21.6 11.4 21.6 10.2 21.3C9.5 21.1 9 20.6 8.8 19.9C8.5 18.6 8.5 16 8.5 16C8.5 16 8.5 13.4 8.7 12.1C8.9 11.4 9.40001 10.9 10.1 10.7C11.4 10.4 16.4 10.4 16.4 10.4C16.4 10.4 21.5 10.4 22.7 10.7Z" fill="#011632"/>
</svg>
