<svg width="482" height="234" viewBox="0 0 482 234" fill="none" xmlns="http://www.w3.org/2000/svg">
<path d="M477 155.21H473.39C473.005 151.139 472.551 147.252 472.031 143.561C474.201 138.981 475.591 133.871 475.961 128.451L481.901 42.651C482.701 30.991 478.8 19.63 471.201 11.481C464.531 4.33099 455.721 0.390991 446.39 0.390991H35.61C26.28 0.390991 17.47 4.32999 10.8 11.481C3.2 19.63 -0.700002 30.991 0.0999984 42.651L6.04 128.451C6.46 134.531 8.14 140.211 10.8 145.19C10.364 148.39 9.978 151.732 9.644 155.211H5C2.239 155.211 -1.94856e-06 157.45 -1.94856e-06 160.211C-1.94856e-06 162.972 2.239 165.211 5 165.211H8.858C8.138 176.903 7.99 190.028 8.59 204.761C8.64 206.062 9.2 207.291 10.15 208.181C11.13 209.121 20.67 217.531 51.83 224.831C51.97 224.86 52.13 224.892 52.28 224.911C53.19 225.041 64.17 226.52 77.41 226.52C90.08 226.52 104.83 225.161 114.73 219.93C121.26 223.28 138.75 230.35 174.39 233.59C174.54 233.6 174.69 233.61 174.85 233.61C176.86 233.61 222.03 233.451 241.84 220.02C248.51 223.401 266.01 230.38 301.34 233.59C301.49 233.6 301.64 233.61 301.79 233.61C303.811 233.61 349.26 233.451 368.98 219.891C378.87 224.811 393.219 226.11 405.589 226.11C418.819 226.11 429.81 224.631 430.719 224.501C430.869 224.481 431.019 224.451 431.169 224.421C462.319 217.11 471.869 208.701 472.849 207.771C473.799 206.872 474.349 205.652 474.41 204.351C475.007 189.788 474.861 176.804 474.161 165.211H477C479.762 165.211 482 162.972 482 160.211C482 157.45 479.762 155.21 477 155.21ZM443.99 154.439V147.71C443.99 144.63 441.49 142.13 438.41 142.13H436.97C433.88 142.13 431.38 144.63 431.38 147.71V153.9H406.83V147.71C406.83 144.63 404.33 142.13 401.25 142.13H399.811C396.72 142.13 394.22 144.63 394.22 147.71V154.731V155.21H376.492C376.512 155.051 376.531 154.891 376.55 154.731C381.34 116.891 391.05 91.861 404.68 82.26C412.281 76.91 421.151 76.351 431.811 80.55C431.861 80.571 431.84 80.561 431.89 80.58C432.17 80.7 453.5 89.79 461.661 141.8C462.32 145.985 462.891 150.453 463.358 155.21H443.99V154.439ZM329.82 154.73V147.709C329.82 144.629 327.32 142.129 324.23 142.129H322.8C319.71 142.129 317.21 144.629 317.21 147.709V153.899H292.66V147.709C292.66 144.629 290.16 142.129 287.07 142.129H285.63C282.55 142.129 280.05 144.629 280.05 147.709V154.73V155.209H249.87C249.891 155.052 249.909 154.886 249.93 154.73C256.031 108.4 269.14 85.429 280.62 74.049C291.61 63.159 301.01 62.959 301.66 62.959H301.79C312.75 62.959 322.061 67.049 330.24 75.449C347.32 92.989 355.639 125.569 359.679 154.729C359.701 154.889 359.72 155.047 359.742 155.208H329.82V154.73ZM201.52 154.73V147.709C201.52 144.629 199.01 142.129 195.93 142.129H194.491C191.411 142.129 188.901 144.629 188.901 147.709V153.899H164.361V147.709C164.361 144.629 161.851 142.129 158.771 142.129H157.331C154.241 142.129 151.741 144.629 151.741 147.709V154.73V155.209H122.921C122.942 155.052 122.96 154.886 122.981 154.73C129.091 108.4 142.201 85.429 153.681 74.049C164.671 63.159 174.072 62.959 174.711 62.959H174.851C185.801 62.959 195.111 67.049 203.301 75.449C220.381 92.989 228.701 125.569 232.731 154.729C232.753 154.889 232.772 155.047 232.794 155.208H201.52V154.73ZM88.78 154.73V147.709C88.78 144.629 86.28 142.129 83.19 142.129H81.75C78.67 142.129 76.16 144.629 76.16 147.709V153.899H51.62V147.709C51.62 144.629 49.11 142.129 46.03 142.129H44.59C41.5 142.129 39 144.629 39 147.709V154.579V155.209H19.69C20.111 150.964 20.619 146.937 21.2 143.149C29.2 90.639 50.55 81.218 51.1 80.999C51.13 80.979 51.16 80.969 51.19 80.959C61.85 76.759 70.72 77.319 78.32 82.669C91.9 92.219 101.59 117.119 106.39 154.73C106.411 154.888 106.429 155.05 106.449 155.209H88.78V154.73ZM10.08 41.96C9.47 33.05 12.39 24.43 18.11 18.3C22.87 13.2 29.09 10.391 35.61 10.391H446.39C452.911 10.391 459.13 13.201 463.89 18.3C469.611 24.43 472.54 33.05 471.92 41.96L466.67 117.88C455.75 79.92 437.47 72 435.44 71.231C421.611 65.8 409.331 66.76 398.92 74.081C381.57 86.301 372.64 115.061 368.07 143.371C362.17 108.491 351.87 83.341 337.41 68.481C327.389 58.191 315.41 52.96 301.8 52.96C300.22 52.95 287.7 53.3 274.17 66.37C256.231 83.71 246.44 113.18 241.36 144.76C235.49 109.16 225.12 83.531 210.47 68.481C200.44 58.191 188.46 52.96 174.86 52.96C173.26 52.95 160.75 53.3 147.23 66.37C129.67 83.33 119.92 111.92 114.75 142.72C110.14 114.76 101.22 86.561 84.08 74.5C73.67 67.17 61.39 66.21 47.56 71.641C45.49 72.43 26.35 80.71 15.55 121.11L10.08 41.96ZM53.88 215.04C32.03 209.891 21.95 204.279 18.49 201.99C17.999 188.259 18.184 176.056 18.875 165.21H39V172.71C39 175.79 41.5 178.29 44.59 178.29H46.03C49.11 178.29 51.62 175.79 51.62 172.71V166.52H76.16V172.71C76.16 175.79 78.67 178.29 81.75 178.29H83.19C86.28 178.29 88.78 175.79 88.78 172.71V165.21H107.555C109.174 181.768 109.52 196.696 109.549 205.59C109.519 207.55 109.499 209.481 109.499 211.391C95.11 218.6 65.09 216.561 53.88 215.04ZM119.55 211.16C119.571 209.46 119.59 207.16 119.571 204.37C119.807 189.887 120.572 176.889 121.755 165.21H151.741V172.71C151.741 175.79 154.241 178.29 157.331 178.29H158.771C161.851 178.29 164.361 175.79 164.361 172.71V166.52H188.901V172.71C188.901 175.79 191.411 178.29 194.491 178.29H195.93C199.01 178.29 201.52 175.79 201.52 172.71V165.21H234.021C236.064 183.865 236.44 200.021 236.47 208.2C236.46 209.34 236.45 210.47 236.45 211.599C222.66 221.339 188.06 223.579 175.07 223.609C141.13 220.5 124.95 213.87 119.55 211.16ZM363.42 211.59C349.63 221.34 315.01 223.58 302.01 223.61C268.031 220.501 251.85 213.85 246.481 211.151C246.491 210.09 246.501 208.76 246.481 207.201V207.161C246.659 191.55 247.452 177.632 248.705 165.211H280.051V172.711C280.051 175.791 282.551 178.291 285.631 178.291H287.071C290.161 178.291 292.661 175.791 292.661 172.711V166.521H317.211V172.711C317.211 175.791 319.711 178.291 322.801 178.291H324.232C327.322 178.291 329.822 175.791 329.822 172.711V165.211H360.972C362.887 182.759 363.332 198.089 363.411 206.651C363.411 207.041 363.421 207.421 363.421 207.791C363.431 208.431 363.431 209.03 363.431 209.581V209.791C363.43 210.47 363.42 211.07 363.42 211.59ZM464.51 201.57C461 203.89 450.91 209.5 429.12 214.63C417.89 216.151 387.83 218.19 373.46 210.96C373.371 204.242 373.381 186.059 375.395 165.21H394.22V172.71C394.22 175.79 396.72 178.29 399.811 178.29H401.25C404.33 178.29 406.83 175.79 406.83 172.71V166.52H431.38V172.71C431.38 175.79 433.88 178.29 436.97 178.29H438.41C441.49 178.29 443.99 175.79 443.99 172.71V165.21H464.154C464.823 175.946 464.996 188.012 464.51 201.57Z" fill="black"/>
</svg>
