<svg width="40" height="50" viewBox="0 0 40 50" fill="none" xmlns="http://www.w3.org/2000/svg">
<path d="M36.619 2.91002C36.244 2.55402 35.659 2.54102 35.269 2.88102L28.971 8.39402C28.742 8.59402 28.617 8.88802 28.63 9.19202C28.644 9.49702 28.796 9.77802 29.042 9.95602L31.749 11.921L26.313 15.512L28.231 12.39C28.483 11.981 28.409 11.451 28.053 11.127L25.346 8.65501L28.653 6.69402C28.988 6.49602 29.177 6.12002 29.137 5.73102C29.096 5.34302 28.834 5.01401 28.465 4.88701L25.944 4.03002L26.897 2.37002C27.103 2.01102 27.067 1.56101 26.806 1.24101C26.544 0.919015 26.111 0.792015 25.72 0.921015C24.675 1.26101 23.614 1.72802 22.563 2.30802C21.738 2.76302 20.873 3.03102 19.988 3.10502C19.104 3.03102 18.238 2.76302 17.413 2.30802C13.038 -0.105984 8.599 -0.420985 5.311 1.46202C-2.839 6.12602 0.0660017 18.288 3.068 24.739C3.838 26.394 4.035 27.999 3.687 29.79C3.393 31.31 3.243 32.874 3.243 34.442C3.243 39.61 4.849 44.532 7.766 48.299C8.674 49.473 10.182 49.998 11.633 49.645C13.101 49.288 14.174 48.145 14.433 46.665L16.606 34.224C16.831 32.937 17.91 32.038 19.231 32.038H20.744C22.066 32.038 23.145 32.936 23.369 34.224L25.543 46.665C25.802 48.145 26.874 49.288 28.343 49.645C28.648 49.719 28.958 49.758 29.265 49.758C30.419 49.758 31.493 49.227 32.21 48.299C35.126 44.531 36.733 39.61 36.733 34.442C36.733 32.872 36.583 31.305 36.289 29.79C35.94 27.999 36.138 26.395 36.907 24.739C40.113 17.854 41.959 8.00602 36.619 2.91002ZM30.631 47.074C30.197 47.635 29.516 47.873 28.82 47.701C28.125 47.533 27.637 47.015 27.516 46.32L25.342 33.879C24.953 31.652 23.021 30.037 20.746 30.037H19.233C16.959 30.037 15.025 31.652 14.637 33.879L12.464 46.32C12.343 47.015 11.855 47.533 11.16 47.701C10.464 47.871 9.783 47.635 9.349 47.074C6.702 43.654 5.244 39.168 5.244 34.441C5.244 33 5.381 31.564 5.652 30.17C6.078 27.975 5.827 25.921 4.883 23.894C2.169 18.062 -0.584999 7.14002 6.306 3.19702C8.988 1.66202 12.7 1.98901 16.449 4.05701C17.551 4.66501 18.719 5.01702 19.918 5.10402C19.966 5.10702 20.014 5.10702 20.062 5.10402C21.263 5.01702 22.43 4.66601 23.531 4.05701C23.576 4.03301 23.621 4.00801 23.665 3.98401L23.607 4.08602C23.459 4.34502 23.433 4.65602 23.539 4.93702C23.644 5.21602 23.869 5.43402 24.152 5.53102L25.767 6.08101L23.166 7.62402C22.894 7.78602 22.714 8.06702 22.682 8.38202C22.65 8.69702 22.769 9.00901 23.002 9.22401L26.095 12.047L22.247 18.312C22.001 18.71 22.066 19.228 22.403 19.554C22.74 19.878 23.257 19.929 23.649 19.669L34.055 12.794C34.329 12.612 34.496 12.31 34.504 11.981C34.511 11.653 34.358 11.342 34.092 11.149L31.231 9.07302L35.855 5.02601C39.382 9.33301 38.088 17.464 35.096 23.895C34.946 24.217 34.82 24.541 34.705 24.865C33.458 27.384 31.875 29.597 30.116 31.263C29.715 31.642 29.697 32.275 30.078 32.675C30.273 32.884 30.539 32.988 30.804 32.988C31.051 32.988 31.298 32.898 31.492 32.715C32.463 31.797 33.383 30.731 34.229 29.549C34.258 29.756 34.287 29.963 34.327 30.174C34.598 31.565 34.735 33 34.735 34.444C34.736 39.168 33.277 43.656 30.631 47.074Z" fill="black"/>
<path d="M20.79 8.26704C18.972 8.45604 17.109 7.97804 15.673 6.95804C15.222 6.63804 14.599 6.74504 14.279 7.19504C13.959 7.64504 14.065 8.27004 14.516 8.58904C16.078 9.69704 18.022 10.308 19.991 10.308C20.327 10.308 20.663 10.29 20.997 10.255C21.546 10.198 21.946 9.70604 21.888 9.15704C21.83 8.60804 21.334 8.20004 20.79 8.26704Z" fill="black"/>
</svg>
