<svg xmlns="http://www.w3.org/2000/svg" fill="none" viewBox="3.99 2 56.01 60.01">
<path d="M36.7 12.09C35.64 11.97 34.72 11.97 33.88 12.09C33.33 12.17 32.95 12.67 33.02 13.22C33.09 13.77 33.6 14.15 34.15 14.08C34.82 13.99 35.58 13.99 36.47 14.09C39.32 14.41 41.39 15.72 42.62 17.98C45.5 23.25 43.26 32.4 41.42 36.13C38.44 42.21 38.44 45.35 38.44 52.22C38.44 58.46 35.05 59.96 33.75 60.02C32.86 59.32 31.98 54.05 31.45 50.89C31.24 49.62 31.02 48.34 30.8 47.15C29.89 42.34 26.68 41.31 25.01 41.44C23.34 41.31 20.12 42.34 19.22 47.15C19 48.34 18.78 49.61 18.57 50.89C18.04 54.06 17.16 59.33 16.27 60.02C14.97 59.96 11.58 58.46 11.58 52.22C11.58 45.35 11.58 42.21 8.6 36.13C6.76 32.4 4.52 23.26 7.4 17.98C8.63 15.73 10.7 14.42 13.55 14.1C14.44 14 15.2 14 15.87 14.09C16.42 14.16 16.92 13.78 17 13.23C17.07 12.68 16.69 12.18 16.14 12.1C15.31 11.99 14.38 11.99 13.32 12.1C9.78 12.5 7.2 14.15 5.64 17.01C2.19 23.34 4.93 33.21 6.8 37C9.58 42.66 9.58 45.46 9.58 52.21C9.58 59.4 13.63 62.01 16.35 62.01C18.62 62.01 19.39 58.1 20.54 51.2C20.75 49.94 20.96 48.68 21.18 47.5C21.97 43.29 24.61 43.39 24.9 43.42C24.96 43.42 25.04 43.42 25.11 43.42C25.4 43.4 28.05 43.29 28.84 47.5C29.06 48.68 29.27 49.94 29.48 51.2C30.63 58.1 31.4 62.01 33.67 62.01C36.39 62.01 40.44 59.4 40.44 52.21C40.44 45.46 40.44 42.66 43.22 37C45.09 33.21 47.83 23.34 44.38 17.01C42.82 14.15 40.23 12.5 36.7 12.1V12.09Z" fill="black"/>
<path d="M56.5 2H16.5C14.57 2 13 3.57 13 5.5C13 7.43 14.57 9 16.5 9H19V13C19 15.97 21.17 18.43 24 18.91V24C24 24.55 24.45 25 25 25C25.55 25 26 24.55 26 24V18.91C28.83 18.43 31 15.97 31 13V9H56.5C58.43 9 60 7.43 60 5.5C60 3.57 58.43 2 56.5 2ZM29 13C29 15.21 27.21 17 25 17C22.79 17 21 15.21 21 13V9H29V13ZM56.5 7H16.5C15.67 7 15 6.33 15 5.5C15 4.67 15.67 4 16.5 4H56.5C57.33 4 58 4.67 58 5.5C58 6.33 57.33 7 56.5 7Z" fill="black"/>
<path d="M51.6 24.8L55.6 21.8C56.04 21.47 56.13 20.84 55.8 20.4C55.47 19.96 54.84 19.87 54.4 20.2L50.4 23.2C49.96 23.53 49.87 24.16 50.2 24.6C50.4 24.86 50.7 25 51 25C51.21 25 51.42 24.93 51.6 24.8Z" fill="black"/>
<path d="M48.8 34.4C48.47 33.96 47.84 33.87 47.4 34.2C46.96 34.53 46.87 35.16 47.2 35.6L50.2 39.6C50.4 39.86 50.7 40 51 40C51.21 40 51.42 39.93 51.6 39.8C52.04 39.47 52.13 38.84 51.8 38.4L48.8 34.4Z" fill="black"/>
<path d="M55.37 30.07L50.37 28.07C49.86 27.86 49.27 28.11 49.07 28.63C48.86 29.14 49.11 29.72 49.63 29.93L54.63 31.93C54.75 31.98 54.88 32 55 32C55.4 32 55.77 31.76 55.93 31.37C56.14 30.86 55.89 30.28 55.37 30.07Z" fill="black"/>
</svg>