<svg width="46" height="63" viewBox="0 0 46 63" fill="none" xmlns="http://www.w3.org/2000/svg">
<path d="M16.46 18.2471C16.51 17.9867 16.6611 17.7568 16.8803 17.6076C17.0995 17.4584 17.3688 17.4022 17.6294 17.4512C18.7214 17.7034 19.7216 18.2546 20.5181 19.043C20.8273 19.4004 21.21 19.6868 21.6401 19.8827C22.0701 20.0785 22.5374 20.1791 23.01 20.1777C23.0251 20.1763 23.038 20.1839 23.053 20.1832C23.068 20.1825 23.0791 20.1766 23.093 20.1777C23.5659 20.1803 24.0338 20.08 24.4642 19.8839C24.8946 19.6879 25.2772 19.4006 25.5856 19.042C26.3825 18.2543 27.3826 17.7035 28.4743 17.4512C28.6033 17.4267 28.7359 17.4277 28.8645 17.4544C28.9931 17.4811 29.1151 17.5329 29.2237 17.6067C29.3323 17.6806 29.4253 17.7751 29.4974 17.8849C29.5694 17.9947 29.6191 18.1176 29.6437 18.2466C29.6683 18.3756 29.6672 18.5082 29.6405 18.6368C29.6138 18.7654 29.562 18.8875 29.4882 18.996C29.4143 19.1046 29.3198 19.1976 29.21 19.2697C29.1002 19.3417 28.9773 19.3915 28.8483 19.416C28.1001 19.6131 27.4199 20.0107 26.8811 20.566C25.9194 21.5572 24.6103 22.1362 23.23 22.1807C23.1713 22.1807 23.1115 22.1788 23.0513 22.1767C22.9913 22.1788 22.9313 22.1807 22.8726 22.1807C21.4927 22.1362 20.184 21.5574 19.2226 20.5664C18.6838 20.0111 18.0035 19.6135 17.2553 19.4164C16.9948 19.3668 16.7646 19.2157 16.6155 18.9965C16.4664 18.7772 16.4104 18.5076 16.46 18.2471ZM45.0356 38.6592V46.8C45.0306 51.095 43.3222 55.2126 40.2852 58.2496C37.2482 61.2867 33.1306 62.995 28.8356 63H17.1646C12.8696 62.995 8.75198 61.2867 5.71497 58.2496C2.67795 55.2126 0.969575 51.095 0.9646 46.8V38.6592C0.9646 38.394 1.06996 38.1396 1.25749 37.9521C1.44503 37.7646 1.69938 37.6592 1.9646 37.6592H6.341C4.7391 32.9885 3.256 28.5745 3.1438 24.6768C3.03909 23.1603 3.24466 21.6383 3.74795 20.2039C4.25124 18.7694 5.04168 17.4527 6.071 16.334C7.38962 15.0161 9.01914 14.0517 10.809 13.53L10.1031 7.00701L7.8301 7.25641C7.79356 7.26027 7.75684 7.26221 7.7201 7.26221C7.47407 7.26187 7.2368 7.17083 7.05367 7.00653C6.87054 6.84222 6.75442 6.61617 6.7275 6.37161L6.2909 2.39601C6.26208 2.13238 6.33907 1.86809 6.50497 1.66118C6.67087 1.45428 6.91211 1.32168 7.1757 1.29251L13.14 0.636711C13.4037 0.607778 13.668 0.684728 13.875 0.850645C14.0819 1.01656 14.2145 1.25787 14.2436 1.52151L14.68 5.49801C14.7089 5.76175 14.6319 6.02616 14.4659 6.23312C14.2998 6.44007 14.0584 6.57262 13.7947 6.60161L12.0914 6.78851L12.7761 13.1158C13.2985 13.043 13.8251 13.0043 14.3525 13C16.2636 12.9959 18.1392 13.5165 19.7749 14.5049C20.7536 15.1379 21.8859 15.4933 23.0508 15.5332C24.2157 15.4933 25.348 15.1379 26.3267 14.5049C27.9622 13.5165 29.8376 12.996 31.7485 13C34.8413 12.9745 37.8187 14.1734 40.0308 16.335C41.06 17.4533 41.8504 18.7697 42.3537 20.2038C42.857 21.6379 43.0626 23.1596 42.958 24.6758C42.8458 28.5741 41.3628 32.9884 39.7606 37.6592H44.0356C44.1669 37.6592 44.297 37.6851 44.4183 37.7353C44.5396 37.7856 44.6498 37.8592 44.7427 37.9521C44.8356 38.045 44.9092 38.1552 44.9595 38.2765C45.0097 38.3979 45.0356 38.5279 45.0356 38.6592ZM12.9907 15.1022L15.1742 35.2822C15.4781 34.7112 15.8572 34.1834 16.3013 33.7131C17.8135 32.1477 19.958 31.4182 23.0513 31.4182C26.1475 31.4182 28.2944 32.1482 29.8071 33.716C31.7119 35.6906 32.5527 39.0344 32.3771 43.9397C32.204 47.7001 32.3675 51.4684 32.8656 55.1997C33.0858 55.0026 33.2625 54.7618 33.3843 54.4926C33.5062 54.2234 33.5705 53.9317 33.5733 53.6362C34.0304 48.4487 35.6515 43.437 37.4156 38.3335L37.7398 37.3882C39.34 32.7246 40.8521 28.3193 40.959 24.62C41.06 23.3709 40.9024 22.1144 40.496 20.9289C40.0896 19.7435 39.4433 18.6545 38.5972 17.73C36.764 15.952 34.3022 14.9707 31.7485 15C30.1635 14.9982 28.6095 15.4392 27.2617 16.2734C25.996 17.0624 24.5418 17.4975 23.0508 17.5334C21.5597 17.4975 20.1055 17.0624 18.8398 16.2734C17.4919 15.4392 15.9377 14.9982 14.3525 15C13.8968 15.0037 13.4419 15.0379 12.9907 15.1022ZM15.2667 55.0959C16.0048 54.6704 16.5504 53.9768 16.79 53.1592C16.9324 52.4132 17.018 51.6574 17.0463 50.8984C17.328 47.084 17.7992 40.6992 23.0512 40.6992C28.3032 40.6992 28.7743 47.084 29.0561 50.8984C29.0844 51.6581 29.1702 52.4145 29.3129 53.1611C29.5546 53.9773 30.0991 54.6702 30.8351 55.0979C30.3636 51.3742 30.2108 47.617 30.3783 43.8672C30.4136 42.8834 30.4012 41.9852 30.3521 41.1508C29.0432 39.1349 27.0092 37.6995 24.6713 37.1416C24.4108 37.092 24.1806 36.941 24.0314 36.7216C23.8822 36.5023 23.8263 36.2328 23.8759 35.9722C23.9255 35.7117 24.0766 35.4815 24.2959 35.3323C24.5152 35.1832 24.7848 35.1272 25.0453 35.1768C26.7874 35.5269 28.4052 36.3333 29.7335 37.5136C29.4652 36.618 28.9983 35.7946 28.3676 35.1045C27.2421 33.9385 25.6025 33.418 23.0512 33.418C20.5028 33.418 18.8651 33.938 17.7406 35.1016C17.1121 35.7883 16.6461 36.6076 16.3771 37.4988C17.7054 36.3264 19.3196 35.5254 21.0566 35.1768C21.1856 35.1522 21.3182 35.1532 21.4468 35.1798C21.5754 35.2065 21.6975 35.2582 21.8062 35.332C21.9148 35.4058 22.0078 35.5003 22.08 35.61C22.1521 35.7198 22.2019 35.8427 22.2265 35.9717C22.2511 36.1007 22.2501 36.2333 22.2235 36.3619C22.1969 36.4905 22.1452 36.6127 22.0713 36.7213C21.9975 36.8299 21.903 36.923 21.7933 36.9951C21.6835 37.0672 21.5606 37.117 21.4316 37.1416C19.0953 37.6997 17.0625 39.1335 15.7527 41.1469C15.7027 41.9827 15.6896 42.8824 15.724 43.8682C15.8914 47.617 15.7384 51.3732 15.2667 55.0959ZM12.5825 4.72271L12.3643 2.73441L8.3877 3.17091L8.606 5.15821L12.5825 4.72271ZM8.36 37.3838L8.6846 38.3301L8.6856 38.332C10.3149 42.662 11.5267 47.1377 12.3044 51.6982C12.3959 52.3419 12.4705 52.9881 12.5284 53.6367C12.5313 53.9319 12.5957 54.2232 12.7175 54.4921C12.8393 54.761 13.0158 55.0015 13.2357 55.1984C13.7338 51.4675 13.8974 47.6996 13.7247 43.9395C13.6879 42.9248 13.7032 41.9088 13.7704 40.8956L11.0292 15.5647C9.70173 16.0015 8.4947 16.7425 7.5044 17.7285C6.65823 18.6534 6.01179 19.7429 5.60543 20.9288C5.19908 22.1147 5.04152 23.3716 5.1426 24.6211C5.249 28.3174 6.76 32.7217 8.36 37.3838ZM43.0357 39.6592H39.0757C39.0186 39.8259 38.9617 39.9922 38.9051 40.1583C38.7984 40.4716 38.6924 40.7848 38.5871 41.0977C38.4788 41.4205 38.3737 41.7427 38.2681 42.0649C38.1746 42.3504 38.081 42.636 37.9899 42.9212C37.8836 43.2542 37.7819 43.5869 37.6799 43.9194C37.5958 44.1926 37.5108 44.4659 37.4299 44.7389C37.3299 45.0775 37.2355 45.4158 37.1399 45.7542C37.0648 46.0214 36.9876 46.2886 36.9162 46.5557C36.8238 46.9011 36.74 47.2465 36.6543 47.5919C36.5903 47.8504 36.5227 48.1089 36.4628 48.3676C36.3799 48.725 36.3078 49.0828 36.2335 49.4406C36.1821 49.6877 36.1257 49.9348 36.0787 50.1821C36.0038 50.5758 35.9429 50.97 35.88 51.3643C35.8466 51.5743 35.8061 51.7843 35.7762 51.9949C35.6903 52.5998 35.6187 53.2055 35.5652 53.8125C35.5762 54.6999 35.2598 55.5602 34.6765 56.2289C34.0931 56.8977 33.2837 57.328 32.4031 57.4375C32.3503 57.4429 32.298 57.4341 32.2452 57.4375C32.2378 57.4389 32.2323 57.4441 32.2252 57.4454C32.1679 57.4551 32.11 57.46 32.0519 57.4601C32.0085 57.4554 31.9655 57.4477 31.9231 57.4372C30.8778 57.3651 29.8807 56.97 29.0698 56.3065C28.2589 55.643 27.6742 54.7439 27.3966 53.7335C27.2021 52.8499 27.0898 51.9503 27.0611 51.046C26.7496 46.8224 26.1832 42.6993 23.0511 42.6993C19.919 42.6993 19.3524 46.8224 19.0411 51.046C19.0125 51.9489 18.9006 52.8473 18.7067 53.7296C18.6227 54.0083 18.5169 54.2799 18.3902 54.5419C18.3431 54.64 18.2828 54.7276 18.2302 54.8219C18.1448 54.9758 18.0621 55.1319 17.9637 55.2747C17.8887 55.384 17.8022 55.4808 17.7203 55.5835C17.6293 55.6971 17.542 55.8135 17.4433 55.9185C17.3446 56.0235 17.2397 56.1129 17.1354 56.2075C17.0389 56.2949 16.9454 56.3845 16.8434 56.4636C16.7287 56.553 16.6083 56.6293 16.4876 56.7076C16.3846 56.7745 16.2833 56.8423 16.1764 56.9008C16.0514 56.9693 15.9231 57.0256 15.7935 57.082C15.6809 57.131 15.5691 57.1791 15.4535 57.2186C15.3252 57.2625 15.1957 57.2961 15.0645 57.3277C14.9395 57.3577 14.8145 57.3842 14.6878 57.4029C14.563 57.421 14.4386 57.4318 14.3125 57.4382C14.2416 57.442 14.1719 57.4582 14.1008 57.4582L14.0696 57.4566C14.0626 57.4566 14.0565 57.4602 14.0496 57.4602C14.0027 57.4594 13.9559 57.4554 13.9096 57.4483C13.8413 57.4449 13.7732 57.4448 13.7048 57.4377C12.8231 57.3298 12.0123 56.9003 11.4277 56.2316C10.8431 55.5628 10.5259 54.7019 10.5368 53.8137C10.4832 53.2054 10.4115 52.5985 10.3253 51.9924C10.2978 51.7987 10.2603 51.6055 10.2298 51.4124C10.1647 51.0005 10.1005 50.5886 10.0223 50.1774C9.9778 49.9428 9.924 49.7085 9.8755 49.4742C9.7989 49.1042 9.7241 48.7342 9.6384 48.3642C9.5798 48.1116 9.5139 47.8592 9.4513 47.6067C9.3644 47.2556 9.279 46.9044 9.1851 46.5533C9.1143 46.2889 9.038 46.0245 8.9637 45.7601C8.868 45.4195 8.7737 45.079 8.6723 44.7383C8.5923 44.4691 8.5085 44.1996 8.4256 43.9302C8.3213 43.5909 8.2175 43.2515 8.109 42.9118C8.0249 42.6484 7.9382 42.3845 7.852 42.1207C7.7354 41.7645 7.619 41.4083 7.4992 41.0513C7.4192 40.8135 7.3386 40.5754 7.2574 40.3371C7.18067 40.1116 7.10343 39.8858 7.0257 39.6598H2.9644V46.8C2.96869 50.5648 4.46613 54.1741 7.12822 56.8362C9.79031 59.4983 13.3996 60.9957 17.1644 61H28.8354C32.6002 60.9957 36.2095 59.4983 38.8716 56.8362C41.5337 54.1741 43.0311 50.5648 43.0354 46.8L43.0357 39.6592Z" fill="black"/>
</svg>
