<svg width="60" height="60" viewBox="0 0 60 60" fill="none" xmlns="http://www.w3.org/2000/svg">
<path d="M59.918 23.636C59.905 23.603 59.895 23.572 59.879 23.54C59.818 23.424 59.741 23.318 59.639 23.233C59.637 23.231 59.636 23.228 59.634 23.226C59.624 23.218 59.61 23.217 59.6 23.209C59.531 23.157 59.459 23.106 59.375 23.073L40.213 15.327C38.758 14.772 37.103 14.934 35.84 15.727L30 18.865L24.216 15.761C22.897 14.935 21.24 14.772 19.767 15.335L0.625 23.073C0.542 23.107 0.47 23.157 0.401 23.209C0.391 23.217 0.377 23.218 0.366 23.226C0.364 23.228 0.363 23.231 0.361 23.233C0.259 23.318 0.182 23.424 0.121 23.54C0.105 23.571 0.095 23.603 0.082 23.636C0.045 23.73 0.023 23.828 0.016 23.931C0.014 23.955 0 23.976 0 24C0 37.048 16.412 47.555 30 47.555C35.008 47.555 40.497 46.1 45.538 43.471C46.44 44.376 47 45.624 47 47C47 47.553 47.448 48 48 48C48.552 48 49 47.553 49 47C49 44.243 51.243 42 54 42C54.552 42 55 41.553 55 41C55 40.447 54.552 40 54 40C53.168 40 52.394 39.776 51.703 39.415C57.065 34.967 60 29.535 60 24C60 23.976 59.986 23.955 59.985 23.931C59.977 23.828 59.956 23.73 59.918 23.636ZM29 26V30.98C27.746 30.93 26.407 30.792 25 30.564V26H29ZM35 26V30.564C33.593 30.792 32.254 30.93 31 30.98V26H35ZM41 26V29.17C40.925 29.192 40.849 29.213 40.774 29.235C40.194 29.403 39.619 29.563 39.052 29.708C38.975 29.728 38.898 29.746 38.821 29.765C38.214 29.918 37.614 30.059 37.026 30.184C37.017 30.186 37.009 30.187 37 30.189V26H41ZM23 30.189C22.982 30.185 22.964 30.182 22.945 30.178C22.391 30.06 21.826 29.926 21.255 29.784C21.138 29.755 21.02 29.727 20.903 29.697C20.385 29.564 19.858 29.417 19.328 29.264C19.218 29.232 19.108 29.201 18.999 29.169V26H22.999L23 30.189ZM17 28.542C14.478 27.705 12.206 26.785 10.422 26H17V28.542ZM43 26H49.58C47.796 26.785 45.523 27.706 43 28.543V26ZM20.498 17.196C21.371 16.866 22.364 16.96 23.213 17.489L29.527 20.881C29.822 21.039 30.178 21.039 30.473 20.881L36.844 17.456C37.636 16.962 38.63 16.864 39.483 17.188L55.527 23.674L53.901 24H42H36H30H24H18H6.099L4.473 23.675L20.498 17.196ZM48 43.397C47.409 42.417 46.583 41.59 45.603 41C45.692 40.946 45.773 40.881 45.859 40.823C46.109 40.656 46.347 40.475 46.574 40.278C46.7 40.169 46.83 40.064 46.948 39.947C47.011 39.884 47.065 39.812 47.126 39.746C47.259 39.602 47.395 39.46 47.516 39.306C47.533 39.285 47.546 39.261 47.562 39.239C47.718 39.034 47.868 38.823 48.001 38.602C48.173 38.887 48.37 39.155 48.58 39.412C48.622 39.464 48.669 39.511 48.713 39.562C48.886 39.763 49.07 39.953 49.264 40.133C49.295 40.162 49.321 40.196 49.353 40.225C49.368 40.238 49.387 40.243 49.403 40.256C49.715 40.529 50.042 40.785 50.399 41C49.417 41.591 48.591 42.417 48 43.397ZM50.126 38.122C50.085 38.071 50.041 38.024 50.002 37.972C49.911 37.85 49.827 37.725 49.748 37.597C49.667 37.465 49.595 37.329 49.526 37.189C49.462 37.059 49.399 36.929 49.347 36.794C49.283 36.629 49.234 36.456 49.188 36.283C49.156 36.164 49.117 36.047 49.094 35.926C49.037 35.624 49 35.317 49 35C49 34.447 48.552 34 48 34C47.448 34 47 34.447 47 35C47 37.757 44.757 40 42 40C41.448 40 41 40.447 41 41C41 41.553 41.448 42 42 42C42.313 42 42.617 42.037 42.915 42.092C43.009 42.109 43.1 42.136 43.192 42.159C43.302 42.186 43.407 42.225 43.514 42.259C39.097 44.365 34.264 45.554 30 45.554C17.844 45.554 3.09 36.303 2.058 25.231L5.659 25.951C7.041 26.681 18.148 32.388 28.409 32.95C28.492 32.955 28.576 32.96 28.659 32.964C29.108 32.985 29.556 33 30 33C30.444 33 30.892 32.985 31.341 32.964C31.424 32.96 31.507 32.955 31.591 32.95C41.853 32.388 52.959 26.68 54.341 25.951L57.944 25.23C57.529 29.835 54.795 34.349 50.126 38.122Z" fill="black"/>
<path d="M12 34H10C10 37.035 15.694 40 19 40V38C16.185 38 12 35.378 12 34Z" fill="black"/>
<path d="M59 6C56.243 6 54 3.757 54 1C54 0.447 53.552 0 53 0C52.448 0 52 0.447 52 1C52 3.757 49.757 6 47 6C46.448 6 46 6.447 46 7C46 7.553 46.448 8 47 8C49.757 8 52 10.243 52 13C52 13.553 52.448 14 53 14C53.552 14 54 13.553 54 13C54 10.243 56.243 8 59 8C59.552 8 60 7.553 60 7C60 6.447 59.552 6 59 6ZM53 9.397C52.409 8.417 51.583 7.59 50.603 7C51.583 6.409 52.409 5.583 53 4.603C53.591 5.583 54.417 6.41 55.397 7C54.417 7.591 53.591 8.417 53 9.397Z" fill="black"/>
<path d="M5 59C5 59.553 5.448 60 6 60C6.552 60 7 59.553 7 59C7 56.233 8.233 55 11 55C11.552 55 12 54.553 12 54C12 53.447 11.552 53 11 53C8.233 53 7 51.767 7 49C7 48.447 6.552 48 6 48C5.448 48 5 48.447 5 49C5 51.767 3.767 53 1 53C0.448 53 0 53.447 0 54C0 54.553 0.448 55 1 55C3.767 55 5 56.233 5 59ZM6 52.787C6.327 53.267 6.732 53.673 7.213 54C6.732 54.327 6.327 54.732 6 55.213C5.673 54.732 5.268 54.327 4.787 54C5.268 53.673 5.673 53.268 6 52.787Z" fill="black"/>
</svg>
