<svg width="198" height="29" viewBox="0 0 198 29" fill="none" xmlns="http://www.w3.org/2000/svg">
<path d="M14.8761 4.6706C13.7019 5.14358 12.2981 5.14358 11.1328 4.6706C6.07402 2.62099 0 5.52022 0 9.9698C0 12.7814 2.98404 24.3784 7.61901 24.3784C9.26112 24.3784 10.7443 23.0733 12.1657 20.393C12.4747 19.8149 13.5253 19.8149 13.8431 20.393C15.2557 23.0733 16.7389 24.3784 18.3722 24.3784C22.9806 24.3784 26 12.869 26 9.9698C26 5.52022 19.9348 2.62099 14.8761 4.6706ZM18.3722 23.3098C17.4098 23.3098 16.2092 22.101 15.0879 19.9814C14.3199 18.5361 11.6801 18.5361 10.9121 19.9814C9.79083 22.101 8.59898 23.3098 7.61901 23.3098C4.65263 23.3098 1.35959 13.2632 1.35959 9.9698C1.35959 6.30854 6.34771 3.9436 10.5059 5.61657C12.0686 6.24722 13.9314 6.24722 15.4941 5.61657C19.6435 3.9436 24.6404 6.30854 24.6404 9.9698C24.6404 13.2544 21.3474 23.3098 18.3722 23.3098Z" fill="black"/>
<path d="M21.8241 9.62164C21.4628 9.62164 21.1617 9.8448 21.1617 10.1175C21.1617 10.9606 20.7144 13.3326 19.6993 16.0021C19.6046 16.2748 19.8025 16.5558 20.1552 16.6302C20.4993 16.7046 20.8778 16.5476 20.9724 16.2748C22.0133 13.5227 22.4865 11.0184 22.4865 10.1175C22.4865 9.8448 22.194 9.62164 21.8241 9.62164Z" fill="black"/>
<path d="M7.68031 6.81085C4.99967 6.81085 2.81081 8.18105 2.81081 9.85743C2.81081 10.1177 3.1483 10.3244 3.56293 10.3244C3.96792 10.3244 4.3054 10.1177 4.3054 9.85743C4.3054 8.69391 5.82893 7.74473 7.68031 7.74473C8.09494 7.74473 8.43243 7.53039 8.43243 7.27779C8.43243 7.01753 8.09494 6.81085 7.68031 6.81085Z" fill="black"/>
<path d="M34.3091 5.22656L37.7881 13.1367L41.2915 5.22656H45.5884L39.8145 16.5791V23H35.7739V16.5791L29.9878 5.22656H34.3091ZM61.5186 13.7227V14.5161C61.5186 15.867 61.3314 17.0796 60.957 18.1538C60.5908 19.228 60.0659 20.1436 59.3823 20.9004C58.7069 21.6572 57.9012 22.2391 56.9653 22.646C56.0376 23.0448 55.0081 23.2441 53.877 23.2441C52.7458 23.2441 51.7122 23.0448 50.7764 22.646C49.8405 22.2391 49.0267 21.6572 48.335 20.9004C47.6514 20.1436 47.1224 19.228 46.748 18.1538C46.3737 17.0796 46.1865 15.867 46.1865 14.5161V13.7227C46.1865 12.3717 46.3737 11.1592 46.748 10.085C47.1224 9.0026 47.6473 8.08301 48.3228 7.32617C49.0063 6.56934 49.8161 5.99154 50.752 5.59277C51.6878 5.18587 52.7214 4.98242 53.8525 4.98242C54.9837 4.98242 56.0173 5.18587 56.9531 5.59277C57.889 5.99154 58.6947 6.56934 59.3701 7.32617C60.0537 8.08301 60.5827 9.0026 60.957 10.085C61.3314 11.1592 61.5186 12.3717 61.5186 13.7227ZM57.5024 14.5161V13.6982C57.5024 12.7949 57.4211 11.9974 57.2583 11.3057C57.0955 10.6058 56.8595 10.0199 56.5503 9.54785C56.241 9.07585 55.8586 8.72184 55.4028 8.48584C54.9471 8.2417 54.4303 8.11963 53.8525 8.11963C53.2503 8.11963 52.7254 8.2417 52.2778 8.48584C51.8302 8.72184 51.4518 9.07585 51.1426 9.54785C50.8415 10.0199 50.6095 10.6058 50.4468 11.3057C50.2922 11.9974 50.2148 12.7949 50.2148 13.6982V14.5161C50.2148 15.4113 50.2922 16.2088 50.4468 16.9087C50.6095 17.6004 50.8455 18.1864 51.1548 18.6665C51.464 19.1466 51.8424 19.5088 52.29 19.7529C52.7458 19.9971 53.2747 20.1191 53.877 20.1191C54.4548 20.1191 54.9674 19.9971 55.415 19.7529C55.8708 19.5088 56.2533 19.1466 56.5625 18.6665C56.8717 18.1864 57.1037 17.6004 57.2583 16.9087C57.4211 16.2088 57.5024 15.4113 57.5024 14.5161ZM73.689 5.22656H77.6685V16.8965C77.6685 18.2799 77.3755 19.4437 76.7896 20.3877C76.2118 21.3317 75.4061 22.0438 74.3726 22.5239C73.339 23.0041 72.1427 23.2441 70.7837 23.2441C69.4165 23.2441 68.2121 23.0041 67.1704 22.5239C66.1369 22.0438 65.3231 21.3317 64.729 20.3877C64.1431 19.4437 63.8501 18.2799 63.8501 16.8965V5.22656H67.8418V16.8965C67.8418 17.6615 67.9557 18.2881 68.1836 18.7764C68.4196 19.2565 68.7573 19.6105 69.1968 19.8384C69.6362 20.0581 70.1652 20.168 70.7837 20.168C71.4022 20.168 71.9271 20.0581 72.3584 19.8384C72.7979 19.6105 73.1274 19.2565 73.3472 18.7764C73.575 18.2881 73.689 17.6615 73.689 16.8965V5.22656ZM80.5127 5.22656H87.3364C88.6955 5.22656 89.8714 5.43001 90.8643 5.83691C91.8652 6.24382 92.6343 6.84603 93.1714 7.64355C93.7085 8.44108 93.9771 9.42578 93.9771 10.5977C93.9771 11.5742 93.8184 12.4043 93.501 13.0879C93.1836 13.7715 92.736 14.3371 92.1582 14.7847C91.5885 15.2323 90.9212 15.5944 90.1562 15.8711L88.8623 16.5791H83.0518L83.0273 13.4907H87.3486C87.9427 13.4907 88.4351 13.3849 88.8257 13.1733C89.2163 12.9618 89.5093 12.6647 89.7046 12.2822C89.908 11.8916 90.0098 11.4359 90.0098 10.915C90.0098 10.3779 89.908 9.91406 89.7046 9.52344C89.5011 9.13281 89.2 8.83577 88.8013 8.63232C88.4106 8.42074 87.9224 8.31494 87.3364 8.31494H84.4922V23H80.5127V5.22656ZM90.3516 23L86.3599 15.1021L90.5591 15.0898L94.6118 22.8169V23H90.3516Z" fill="black"/>
<path d="M105.117 23H101.088L101.113 21.7183H105.117C106.394 21.7183 107.493 21.4334 108.413 20.8638C109.34 20.286 110.056 19.4884 110.561 18.4712C111.066 17.4539 111.318 16.2739 111.318 14.9312V13.271C111.318 12.2456 111.171 11.3179 110.878 10.4878C110.594 9.65771 110.183 8.94971 109.646 8.36377C109.108 7.76969 108.465 7.31396 107.717 6.99658C106.976 6.6792 106.146 6.52051 105.227 6.52051H101.015V5.22656H105.227C106.333 5.22656 107.347 5.41781 108.266 5.80029C109.194 6.17464 109.995 6.71989 110.671 7.43604C111.354 8.14404 111.879 8.99447 112.246 9.9873C112.62 10.9801 112.807 12.0869 112.807 13.3076V14.9312C112.807 16.1519 112.62 17.2586 112.246 18.2515C111.879 19.2443 111.354 20.0947 110.671 20.8027C109.987 21.5107 109.178 22.056 108.242 22.4385C107.306 22.8128 106.264 23 105.117 23ZM101.76 5.22656V23H100.258V5.22656H101.76ZM127.688 21.7183V23H117.69V21.7183H127.688ZM118.142 5.22656V23H116.64V5.22656H118.142ZM126.442 13.1978V14.4795H117.69V13.1978H126.442ZM127.626 5.22656V6.52051H117.69V5.22656H127.626ZM144.106 5.22656V23H142.592L132.375 7.81445V23H130.874V5.22656H132.375L142.617 20.4121V5.22656H144.106ZM154.238 5.22656V23H152.749V5.22656H154.238ZM160.329 5.22656V6.52051H146.669V5.22656H160.329ZM165.053 5.22656V23H163.552V5.22656H165.053ZM179.946 18.6299C179.946 18.1416 179.864 17.7062 179.702 17.3237C179.539 16.9412 179.27 16.5994 178.896 16.2983C178.53 15.9891 178.033 15.7043 177.407 15.4438C176.788 15.1753 176.015 14.9108 175.087 14.6504C174.2 14.3981 173.399 14.1214 172.683 13.8203C171.966 13.5192 171.352 13.1733 170.839 12.7827C170.335 12.3921 169.948 11.9364 169.68 11.4155C169.411 10.8866 169.277 10.2721 169.277 9.57227C169.277 8.88867 169.423 8.26611 169.716 7.70459C170.009 7.14307 170.42 6.65885 170.949 6.25195C171.486 5.84505 172.117 5.53174 172.841 5.31201C173.574 5.09229 174.375 4.98242 175.246 4.98242C176.491 4.98242 177.565 5.21842 178.469 5.69043C179.38 6.16243 180.084 6.80127 180.581 7.60693C181.085 8.40446 181.337 9.29964 181.337 10.2925H179.836C179.836 9.51937 179.653 8.83171 179.287 8.22949C178.929 7.61914 178.408 7.14307 177.724 6.80127C177.049 6.45133 176.223 6.27637 175.246 6.27637C174.27 6.27637 173.448 6.42692 172.78 6.72803C172.121 7.021 171.621 7.41569 171.279 7.91211C170.945 8.40039 170.778 8.94564 170.778 9.54785C170.778 9.97103 170.86 10.3617 171.022 10.7197C171.185 11.0697 171.45 11.3993 171.816 11.7085C172.19 12.0096 172.683 12.2944 173.293 12.563C173.903 12.8234 174.656 13.0716 175.551 13.3076C176.495 13.568 177.333 13.8569 178.066 14.1743C178.798 14.4917 179.417 14.8579 179.921 15.2729C180.426 15.6799 180.808 16.1559 181.069 16.7012C181.329 17.2464 181.459 17.8812 181.459 18.6055C181.459 19.3298 181.305 19.9808 180.996 20.5586C180.694 21.1283 180.267 21.6125 179.714 22.0112C179.169 22.41 178.522 22.7152 177.773 22.9268C177.032 23.1383 176.223 23.2441 175.344 23.2441C174.554 23.2441 173.769 23.1424 172.988 22.939C172.207 22.7355 171.49 22.4222 170.839 21.999C170.196 21.5677 169.68 21.0143 169.289 20.3389C168.907 19.6634 168.715 18.8577 168.715 17.9219H170.205C170.205 18.6706 170.355 19.3013 170.656 19.814C170.957 20.3267 171.356 20.7417 171.853 21.0591C172.357 21.3765 172.91 21.6084 173.513 21.7549C174.123 21.8932 174.733 21.9624 175.344 21.9624C176.28 21.9624 177.089 21.8241 177.773 21.5474C178.465 21.2707 178.998 20.8841 179.372 20.3877C179.755 19.8831 179.946 19.2972 179.946 18.6299ZM190.664 5.22656V23H189.174V5.22656H190.664ZM196.755 5.22656V6.52051H183.095V5.22656H196.755Z" fill="black"/>
</svg>
