<svg width="247" height="35" viewBox="0 0 247 35" fill="none" xmlns="http://www.w3.org/2000/svg">
<path d="M19.4533 4.87693C17.9178 5.49545 16.0822 5.49545 14.5582 4.87693C7.94296 2.19668 0 5.98799 0 11.8067C0 15.4834 3.90221 30.6486 9.96333 30.6486C12.1107 30.6486 14.0503 28.942 15.909 25.437C16.3131 24.6811 17.6869 24.6811 18.1025 25.437C19.9497 28.942 21.8893 30.6486 24.0251 30.6486C30.0516 30.6486 34 15.598 34 11.8067C34 5.98799 26.0686 2.19668 19.4533 4.87693ZM24.0251 29.2512C22.7667 29.2512 21.1966 27.6706 19.7304 24.8987C18.726 23.0088 15.274 23.0088 14.2696 24.8987C12.8034 27.6706 11.2448 29.2512 9.96333 29.2512C6.08421 29.2512 1.77793 16.1134 1.77793 11.8067C1.77793 7.01885 8.30085 3.92624 13.7385 6.11397C15.782 6.93867 18.218 6.93867 20.2615 6.11397C25.6876 3.92624 32.2221 7.01885 32.2221 11.8067C32.2221 16.102 27.9158 29.2512 24.0251 29.2512Z" fill="black"/>
<path d="M28.5392 11.3514C28.0667 11.3514 27.673 11.6432 27.673 11.9999C27.673 13.1023 27.088 16.2041 25.7606 19.6951C25.6368 20.0517 25.8956 20.4192 26.3568 20.5164C26.8068 20.6137 27.3017 20.4084 27.4255 20.0517C28.7867 16.4527 29.4054 13.1779 29.4054 11.9999C29.4054 11.6432 29.0229 11.3514 28.5392 11.3514Z" fill="black"/>
<path d="M10.0435 7.67572C6.53803 7.67572 3.67567 9.46752 3.67567 11.6597C3.67567 12 4.117 12.2703 4.65921 12.2703C5.18881 12.2703 5.63014 12 5.63014 11.6597C5.63014 10.1382 7.62244 8.89695 10.0435 8.89695C10.5857 8.89695 11.027 8.61666 11.027 8.28633C11.027 7.94599 10.5857 7.67572 10.0435 7.67572Z" fill="black"/>
<path d="M49.1709 6.67188L53.3457 16.1641L57.5498 6.67188H62.7061L55.7773 20.2949V28H50.9287V20.2949L43.9854 6.67188H49.1709ZM81.8223 16.8672V17.8193C81.8223 19.4404 81.5977 20.8955 81.1484 22.1846C80.709 23.4736 80.0791 24.5723 79.2588 25.4805C78.4482 26.3887 77.4814 27.0869 76.3584 27.5752C75.2451 28.0537 74.0098 28.293 72.6523 28.293C71.2949 28.293 70.0547 28.0537 68.9316 27.5752C67.8086 27.0869 66.832 26.3887 66.002 25.4805C65.1816 24.5723 64.5469 23.4736 64.0977 22.1846C63.6484 20.8955 63.4238 19.4404 63.4238 17.8193V16.8672C63.4238 15.2461 63.6484 13.791 64.0977 12.502C64.5469 11.2031 65.1768 10.0996 65.9873 9.19141C66.8076 8.2832 67.7793 7.58984 68.9023 7.11133C70.0254 6.62305 71.2656 6.37891 72.623 6.37891C73.9805 6.37891 75.2207 6.62305 76.3438 7.11133C77.4668 7.58984 78.4336 8.2832 79.2441 9.19141C80.0645 10.0996 80.6992 11.2031 81.1484 12.502C81.5977 13.791 81.8223 15.2461 81.8223 16.8672ZM77.0029 17.8193V16.8379C77.0029 15.7539 76.9053 14.7969 76.71 13.9668C76.5146 13.127 76.2314 12.4238 75.8604 11.8574C75.4893 11.291 75.0303 10.8662 74.4834 10.583C73.9365 10.29 73.3164 10.1436 72.623 10.1436C71.9004 10.1436 71.2705 10.29 70.7334 10.583C70.1963 10.8662 69.7422 11.291 69.3711 11.8574C69.0098 12.4238 68.7314 13.127 68.5361 13.9668C68.3506 14.7969 68.2578 15.7539 68.2578 16.8379V17.8193C68.2578 18.8936 68.3506 19.8506 68.5361 20.6904C68.7314 21.5205 69.0146 22.2236 69.3857 22.7998C69.7568 23.376 70.2109 23.8105 70.748 24.1035C71.2949 24.3965 71.9297 24.543 72.6523 24.543C73.3457 24.543 73.9609 24.3965 74.498 24.1035C75.0449 23.8105 75.5039 23.376 75.875 22.7998C76.2461 22.2236 76.5244 21.5205 76.71 20.6904C76.9053 19.8506 77.0029 18.8936 77.0029 17.8193ZM96.4268 6.67188H101.202V20.6758C101.202 22.3359 100.851 23.7324 100.147 24.8652C99.4541 25.998 98.4873 26.8525 97.2471 27.4287C96.0068 28.0049 94.5713 28.293 92.9404 28.293C91.2998 28.293 89.8545 28.0049 88.6045 27.4287C87.3643 26.8525 86.3877 25.998 85.6748 24.8652C84.9717 23.7324 84.6201 22.3359 84.6201 20.6758V6.67188H89.4102V20.6758C89.4102 21.5938 89.5469 22.3457 89.8203 22.9316C90.1035 23.5078 90.5088 23.9326 91.0361 24.2061C91.5635 24.4697 92.1982 24.6016 92.9404 24.6016C93.6826 24.6016 94.3125 24.4697 94.8301 24.2061C95.3574 23.9326 95.7529 23.5078 96.0166 22.9316C96.29 22.3457 96.4268 21.5938 96.4268 20.6758V6.67188ZM104.615 6.67188H112.804C114.435 6.67188 115.846 6.91602 117.037 7.4043C118.238 7.89258 119.161 8.61523 119.806 9.57227C120.45 10.5293 120.772 11.7109 120.772 13.1172C120.772 14.2891 120.582 15.2852 120.201 16.1055C119.82 16.9258 119.283 17.6045 118.59 18.1416C117.906 18.6787 117.105 19.1133 116.188 19.4453L114.635 20.2949H107.662L107.633 16.5889H112.818C113.531 16.5889 114.122 16.4619 114.591 16.208C115.06 15.9541 115.411 15.5977 115.646 15.1387C115.89 14.6699 116.012 14.123 116.012 13.498C116.012 12.8535 115.89 12.2969 115.646 11.8281C115.401 11.3594 115.04 11.0029 114.562 10.7588C114.093 10.5049 113.507 10.3779 112.804 10.3779H109.391V28H104.615V6.67188ZM116.422 28L111.632 18.5225L116.671 18.5078L121.534 27.7803V28H116.422Z" fill="black"/>
<path d="M135.54 28H130.706L130.735 26.4619H135.54C137.073 26.4619 138.392 26.1201 139.495 25.4365C140.608 24.7432 141.468 23.7861 142.073 22.5654C142.679 21.3447 142.981 19.9287 142.981 18.3174V16.3252C142.981 15.0947 142.806 13.9814 142.454 12.9854C142.112 11.9893 141.619 11.1396 140.975 10.4365C140.33 9.72363 139.559 9.17676 138.66 8.7959C137.771 8.41504 136.775 8.22461 135.672 8.22461H130.618V6.67188H135.672C137 6.67188 138.216 6.90137 139.319 7.36035C140.433 7.80957 141.395 8.46387 142.205 9.32324C143.025 10.1729 143.655 11.1934 144.095 12.3848C144.544 13.5762 144.769 14.9043 144.769 16.3691V18.3174C144.769 19.7822 144.544 21.1104 144.095 22.3018C143.655 23.4932 143.025 24.5137 142.205 25.3633C141.385 26.2129 140.413 26.8672 139.29 27.3262C138.167 27.7754 136.917 28 135.54 28ZM131.512 6.67188V28H129.71V6.67188H131.512ZM162.625 26.4619V28H150.628V26.4619H162.625ZM151.17 6.67188V28H149.368V6.67188H151.17ZM161.131 16.2373V17.7754H150.628V16.2373H161.131ZM162.552 6.67188V8.22461H150.628V6.67188H162.552ZM182.327 6.67188V28H180.511L168.25 9.77734V28H166.448V6.67188H168.25L180.54 24.8945V6.67188H182.327ZM194.485 6.67188V28H192.698V6.67188H194.485ZM201.795 6.67188V8.22461H185.403V6.67188H201.795ZM207.464 6.67188V28H205.662V6.67188H207.464ZM225.335 22.7559C225.335 22.1699 225.237 21.6475 225.042 21.1885C224.847 20.7295 224.524 20.3193 224.075 19.958C223.636 19.5869 223.04 19.2451 222.288 18.9326C221.546 18.6104 220.618 18.293 219.505 17.9805C218.44 17.6777 217.479 17.3457 216.619 16.9844C215.76 16.623 215.022 16.208 214.407 15.7393C213.802 15.2705 213.338 14.7236 213.016 14.0986C212.693 13.4639 212.532 12.7266 212.532 11.8867C212.532 11.0664 212.708 10.3193 213.06 9.64551C213.411 8.97168 213.904 8.39062 214.539 7.90234C215.184 7.41406 215.94 7.03809 216.81 6.77441C217.688 6.51074 218.65 6.37891 219.695 6.37891C221.189 6.37891 222.479 6.66211 223.562 7.22852C224.656 7.79492 225.501 8.56152 226.097 9.52832C226.702 10.4854 227.005 11.5596 227.005 12.751H225.203C225.203 11.8232 224.983 10.998 224.544 10.2754C224.114 9.54297 223.489 8.97168 222.669 8.56152C221.858 8.1416 220.867 7.93164 219.695 7.93164C218.523 7.93164 217.537 8.1123 216.736 8.47363C215.945 8.8252 215.345 9.29883 214.935 9.89453C214.534 10.4805 214.334 11.1348 214.334 11.8574C214.334 12.3652 214.432 12.834 214.627 13.2637C214.822 13.6836 215.14 14.0791 215.579 14.4502C216.028 14.8115 216.619 15.1533 217.352 15.4756C218.084 15.7881 218.987 16.0859 220.062 16.3691C221.194 16.6816 222.2 17.0283 223.079 17.4092C223.958 17.79 224.7 18.2295 225.306 18.7275C225.911 19.2158 226.37 19.7871 226.683 20.4414C226.995 21.0957 227.151 21.8574 227.151 22.7266C227.151 23.5957 226.966 24.377 226.595 25.0703C226.233 25.7539 225.721 26.335 225.057 26.8135C224.402 27.292 223.626 27.6582 222.728 27.9121C221.839 28.166 220.867 28.293 219.812 28.293C218.865 28.293 217.923 28.1709 216.985 27.9268C216.048 27.6826 215.188 27.3066 214.407 26.7988C213.636 26.2812 213.016 25.6172 212.547 24.8066C212.088 23.9961 211.858 23.0293 211.858 21.9062H213.646C213.646 22.8047 213.826 23.5615 214.188 24.1768C214.549 24.792 215.027 25.29 215.623 25.6709C216.229 26.0518 216.893 26.3301 217.615 26.5059C218.348 26.6719 219.08 26.7549 219.812 26.7549C220.936 26.7549 221.907 26.5889 222.728 26.2568C223.558 25.9248 224.197 25.4609 224.646 24.8652C225.105 24.2598 225.335 23.5566 225.335 22.7559ZM238.196 6.67188V28H236.409V6.67188H238.196ZM245.506 6.67188V8.22461H229.114V6.67188H245.506Z" fill="black"/>
</svg>
