<?xml version="1.0" encoding="UTF-8" standalone="no"?>
<!-- Created with Inkscape (http://www.inkscape.org/) -->

<svg
   width="85.000008mm"
   height="15mm"
   viewBox="0 0 85.000008 15"
   version="1.1"
   id="svg1"
   xml:space="preserve"
   inkscape:export-filename="logo-new.svg"
   inkscape:export-xdpi="500"
   inkscape:export-ydpi="500"
   xmlns:inkscape="http://www.inkscape.org/namespaces/inkscape"
   xmlns:sodipodi="http://sodipodi.sourceforge.net/DTD/sodipodi-0.dtd"
   xmlns="http://www.w3.org/2000/svg"
   xmlns:svg="http://www.w3.org/2000/svg"
   xmlns:bx="https://boxy-svg.com"><sodipodi:namedview
     id="namedview1"
     pagecolor="#ffffff"
     bordercolor="#000000"
     borderopacity="0.25"
     inkscape:showpageshadow="2"
     inkscape:pageopacity="0.0"
     inkscape:pagecheckerboard="0"
     inkscape:deskcolor="#d1d1d1"
     inkscape:document-units="mm" /><defs
     id="defs1"><clipPath
       id="clip0_1_466"><rect
         width="33"
         height="26"
         fill="#ffffff"
         transform="translate(0,0.5)"
         id="rect1"
         x="0"
         y="0" /></clipPath><style
       bx:fonts="DM Sans"
       id="style1">@import url(https://fonts.googleapis.com/css2?family=DM+Sans%3Aital%2Cwght%400%2C100%3B0%2C200%3B0%2C300%3B0%2C400%3B0%2C500%3B0%2C600%3B0%2C700%3B0%2C800%3B0%2C900%3B1%2C100%3B1%2C200%3B1%2C300%3B1%2C400%3B1%2C500%3B1%2C600%3B1%2C700%3B1%2C800%3B1%2C900&amp;display=swap);</style></defs><g
     inkscape:label="Layer 1"
     inkscape:groupmode="layer"
     id="layer1"><g
       style="fill:none"
       id="g1"
       transform="matrix(4.1037915,0,0,4.1037915,7.5493295,-48.14829)"><g
         clip-path="url(#clip0_1_466)"
         transform="translate(0,2)"
         id="g7"><path
           d="m 1.2391194,10.730119 c -0.096623,0.03923 -0.2121459,0.03923 -0.30804845,0 -0.41630077,-0.170007 -0.91615222,0.07047 -0.91615222,0.43955 0,0.233216 0.24556666,1.195139 0.62699445,1.195139 0.13513397,0 0.25719127,-0.10825 0.37416182,-0.33057 0.025433,-0.04795 0.1118857,-0.04795 0.1380404,0 0.1162444,0.222317 0.2383017,0.33057 0.3727096,0.33057 0.3792476,0 0.6277206,-0.954658 0.6277206,-1.195139 0,-0.369076 -0.4991254,-0.609557 -0.9154262,-0.43955 z m 0.2877056,1.546053 c -0.079191,0 -0.178,-0.100263 -0.2702691,-0.276082 -0.06321,-0.119877 -0.28043945,-0.119877 -0.34364735,0 -0.092274,0.175821 -0.1903511,0.276082 -0.27099537,0.276082 -0.24411349,0 -0.51510869,-0.833329 -0.51510869,-1.106503 0,-0.303689 0.41048889,-0.499852 0.75268316,-0.361085 0.12859515,0.05231 0.28189275,0.05231 0.41048895,0 0.3414683,-0.138767 0.7526832,0.0574 0.7526832,0.361085 0,0.272449 -0.2709952,1.106503 -0.5158348,1.106503 z"
           fill="#000000"
           id="path1"
           style="stroke-width:0.726529" /><path
           d="m 1.8377789,11.126077 c -0.030514,0 -0.055948,0.01962 -0.055948,0.0436 0,0.0741 -0.037776,0.282621 -0.1235095,0.51729 -0.008,0.02397 0.0087,0.04867 0.038506,0.05522 0.029065,0.0064 0.061029,-0.0073 0.069019,-0.03125 0.087912,-0.241934 0.1278691,-0.462072 0.1278691,-0.541264 0,-0.02397 -0.024704,-0.0436 -0.055938,-0.0436 z"
           fill="#000000"
           id="path2"
           style="stroke-width:0.726529" /><path
           d="m 0.64191318,10.88051 c -0.20197559,0 -0.36689679,0.13005 -0.36689679,0.289159 0,0.02471 0.025424,0.04431 0.056668,0.04431 0.030514,0 0.055947,-0.01962 0.055947,-0.04431 0,-0.110438 0.11479119,-0.200523 0.25428489,-0.200523 0.031245,0 0.056668,-0.02035 0.056668,-0.04431 0,-0.02471 -0.025434,-0.04431 -0.056668,-0.04431 z"
           fill="#000000"
           id="path3"
           style="stroke-width:0.726529" /><text
           style="font-weight:700;font-size:1.96163px;font-family:'DM Sans';letter-spacing:0.0726529px;word-spacing:0.145305px;white-space:pre;fill:#333333;stroke-width:0.726529"
           x="2.6776526"
           y="12.231856"
           id="text3"><tspan
             style="font-style:normal;font-variant:normal;font-weight:normal;font-stretch:normal;font-size:1.96163px;font-family:Inter;-inkscape-font-specification:'Inter, @wght=700';font-variant-ligatures:normal;font-variant-caps:normal;font-variant-numeric:normal;font-variant-east-asian:normal;font-variation-settings:'wght' 700;stroke-width:0.726529"
             id="tspan1">YOUR DENTIST</tspan></text><text
           style="font-size:1.30775px;font-family:Arial, sans-serif;white-space:pre;fill:#333333;stroke-width:0.726529"
           x="13.42152"
           y="10.635669"
           id="text4" /><text
           style="font-size:1.30775px;font-family:Arial, sans-serif;white-space:pre;fill:#333333;stroke-width:0.726529"
           x="35.338806"
           y="16.673853"
           id="text5">Enter your text here</text><text
           style="font-size:1.16244px;font-family:Arial, sans-serif;white-space:pre;fill:#333333;stroke-width:0.726529"
           x="17.577244"
           y="13.984965"
           dy="1.2837757"
           id="text6" /></g></g></g></svg>
