<svg width="254" height="39" viewBox="0 0 254 39" fill="none" xmlns="http://www.w3.org/2000/svg">
<path d="M22.1637 3.00705C20.4143 3.71734 18.3229 3.71734 16.5866 3.00705C9.04965 -0.0708861 0 4.28295 0 10.965C0 15.1872 4.4459 32.6025 11.3515 32.6025C13.7981 32.6025 16.0079 30.6427 18.1256 26.6177C18.586 25.7495 20.1512 25.7495 20.6248 26.6177C22.7293 30.6427 24.9391 32.6025 27.3725 32.6025C34.2387 32.6025 38.7372 15.3188 38.7372 10.965C38.7372 4.28295 29.7007 -0.0708861 22.1637 3.00705ZM27.3725 30.9978C25.9388 30.9978 24.1499 29.1826 22.4794 25.9995C21.3351 23.8291 17.4022 23.8291 16.2578 25.9995C14.5873 29.1826 12.8116 30.9978 11.3515 30.9978C6.93192 30.9978 2.02565 15.9107 2.02565 10.965C2.02565 5.46677 9.4574 1.9153 15.6527 4.42763C17.9809 5.37468 20.7563 5.37468 23.0845 4.42763C29.2667 1.9153 36.7116 5.46677 36.7116 10.965C36.7116 15.8975 31.8053 30.9978 27.3725 30.9978Z" fill="black"/>
<path d="M33.0023 10.176C32.4498 10.176 31.9894 10.5312 31.9894 10.9652C31.9894 12.3069 31.3054 16.082 29.7533 20.3306C29.6086 20.7646 29.9112 21.2119 30.4505 21.3302C30.9766 21.4486 31.5554 21.1987 31.7001 20.7646C33.2916 16.3845 34.0151 12.399 34.0151 10.9652C34.0151 10.5312 33.5679 10.176 33.0023 10.176Z" fill="black"/>
<path d="M11.3515 5.72992C7.69484 5.72992 4.70899 8.08441 4.70899 10.965C4.70899 11.4123 5.16937 11.7674 5.73497 11.7674C6.28742 11.7674 6.74779 11.4123 6.74779 10.965C6.74779 8.9657 8.82605 7.33466 11.3515 7.33466C11.9171 7.33466 12.3775 6.96635 12.3775 6.53228C12.3775 6.08506 11.9171 5.72992 11.3515 5.72992Z" fill="black"/>
<path d="M51.834 6.67188L56.2871 16.3984L60.7402 6.67188H65.5303L58.5137 20.2363V28H54.0605V20.2363L47.0293 6.67188H51.834ZM84.5586 16.8379V17.8486C84.5586 19.4697 84.3389 20.9248 83.8994 22.2139C83.46 23.5029 82.8398 24.6016 82.0391 25.5098C81.2383 26.4082 80.2812 27.0967 79.168 27.5752C78.0645 28.0537 76.8389 28.293 75.4912 28.293C74.1533 28.293 72.9277 28.0537 71.8145 27.5752C70.7109 27.0967 69.7539 26.4082 68.9434 25.5098C68.1328 24.6016 67.5029 23.5029 67.0537 22.2139C66.6143 20.9248 66.3945 19.4697 66.3945 17.8486V16.8379C66.3945 15.207 66.6143 13.752 67.0537 12.4727C67.4932 11.1836 68.1133 10.085 68.9141 9.17676C69.7246 8.26855 70.6816 7.5752 71.7852 7.09668C72.8984 6.61816 74.124 6.37891 75.4619 6.37891C76.8096 6.37891 78.0352 6.61816 79.1387 7.09668C80.252 7.5752 81.209 8.26855 82.0098 9.17676C82.8203 10.085 83.4453 11.1836 83.8848 12.4727C84.334 13.752 84.5586 15.207 84.5586 16.8379ZM80.1201 17.8486V16.8086C80.1201 15.6758 80.0176 14.6797 79.8125 13.8203C79.6074 12.9609 79.3047 12.2383 78.9043 11.6523C78.5039 11.0664 78.0156 10.627 77.4395 10.334C76.8633 10.0312 76.2041 9.87988 75.4619 9.87988C74.7197 9.87988 74.0605 10.0312 73.4844 10.334C72.918 10.627 72.4346 11.0664 72.0342 11.6523C71.6436 12.2383 71.3457 12.9609 71.1406 13.8203C70.9355 14.6797 70.833 15.6758 70.833 16.8086V17.8486C70.833 18.9717 70.9355 19.9678 71.1406 20.8369C71.3457 21.6963 71.6484 22.4238 72.0488 23.0195C72.4492 23.6055 72.9375 24.0498 73.5137 24.3525C74.0898 24.6553 74.749 24.8066 75.4912 24.8066C76.2334 24.8066 76.8926 24.6553 77.4688 24.3525C78.0449 24.0498 78.5283 23.6055 78.9189 23.0195C79.3096 22.4238 79.6074 21.6963 79.8125 20.8369C80.0176 19.9678 80.1201 18.9717 80.1201 17.8486ZM99.5 6.67188H103.88V20.7637C103.88 22.4043 103.528 23.7861 102.825 24.9092C102.132 26.0322 101.17 26.877 99.9395 27.4434C98.7188 28.0098 97.3125 28.293 95.7207 28.293C94.1289 28.293 92.7129 28.0098 91.4727 27.4434C90.2422 26.877 89.2754 26.0322 88.5723 24.9092C87.8789 23.7861 87.5322 22.4043 87.5322 20.7637V6.67188H91.9268V20.7637C91.9268 21.7207 92.0781 22.502 92.3809 23.1074C92.6836 23.7129 93.1182 24.1572 93.6846 24.4404C94.2607 24.7236 94.9395 24.8652 95.7207 24.8652C96.5215 24.8652 97.2002 24.7236 97.7568 24.4404C98.3232 24.1572 98.7529 23.7129 99.0459 23.1074C99.3486 22.502 99.5 21.7207 99.5 20.7637V6.67188ZM107.498 6.67188H115.452C117.083 6.67188 118.484 6.91602 119.656 7.4043C120.838 7.89258 121.746 8.61523 122.381 9.57227C123.016 10.5293 123.333 11.7061 123.333 13.1025C123.333 14.2451 123.138 15.2266 122.747 16.0469C122.366 16.8574 121.824 17.5361 121.121 18.083C120.428 18.6201 119.612 19.0498 118.675 19.3721L117.283 20.1045H110.369L110.34 16.6768H115.481C116.253 16.6768 116.893 16.54 117.4 16.2666C117.908 15.9932 118.289 15.6123 118.543 15.124C118.807 14.6357 118.938 14.0693 118.938 13.4248C118.938 12.7412 118.812 12.1504 118.558 11.6523C118.304 11.1543 117.918 10.7734 117.4 10.5098C116.883 10.2461 116.233 10.1143 115.452 10.1143H111.893V28H107.498V6.67188ZM119.422 28L114.559 18.4932L119.202 18.4639L124.124 27.7949V28H119.422ZM140.735 28H136.092L136.121 24.5723H140.735C141.888 24.5723 142.859 24.3135 143.65 23.7959C144.441 23.2686 145.037 22.502 145.438 21.4961C145.848 20.4902 146.053 19.2744 146.053 17.8486V16.8086C146.053 15.7148 145.936 14.7529 145.701 13.9229C145.477 13.0928 145.14 12.3945 144.69 11.8281C144.241 11.2617 143.689 10.8369 143.035 10.5537C142.381 10.2607 141.629 10.1143 140.779 10.1143H136.004V6.67188H140.779C142.205 6.67188 143.509 6.91602 144.69 7.4043C145.882 7.88281 146.912 8.57129 147.781 9.46973C148.65 10.3682 149.319 11.4424 149.788 12.6924C150.267 13.9326 150.506 15.3145 150.506 16.8379V17.8486C150.506 19.3623 150.267 20.7441 149.788 21.9941C149.319 23.2441 148.65 24.3184 147.781 25.2168C146.922 26.1055 145.892 26.7939 144.69 27.2822C143.499 27.7607 142.181 28 140.735 28ZM138.582 6.67188V28H134.188V6.67188H138.582ZM168.011 24.5723V28H156.658V24.5723H168.011ZM158.094 6.67188V28H153.699V6.67188H158.094ZM166.531 15.3584V18.6982H156.658V15.3584H166.531ZM167.996 6.67188V10.1143H156.658V6.67188H167.996ZM187.933 6.67188V28H183.538L174.969 13.7031V28H170.574V6.67188H174.969L183.553 20.9834V6.67188H187.933ZM200.853 6.67188V28H196.473V6.67188H200.853ZM207.415 6.67188V10.1143H190.013V6.67188H207.415ZM214.593 6.67188V28H210.213V6.67188H214.593ZM229.812 22.4189C229.812 22.0381 229.754 21.6963 229.637 21.3936C229.529 21.0811 229.324 20.7979 229.021 20.5439C228.719 20.2803 228.294 20.0215 227.747 19.7676C227.2 19.5137 226.492 19.25 225.623 18.9766C224.656 18.6641 223.738 18.3125 222.869 17.9219C222.01 17.5312 221.248 17.0771 220.584 16.5596C219.93 16.0322 219.412 15.4219 219.031 14.7285C218.66 14.0352 218.475 13.2295 218.475 12.3115C218.475 11.4229 218.67 10.6172 219.061 9.89453C219.451 9.16211 219.998 8.53711 220.701 8.01953C221.404 7.49219 222.234 7.08691 223.191 6.80371C224.158 6.52051 225.218 6.37891 226.37 6.37891C227.942 6.37891 229.314 6.66211 230.486 7.22852C231.658 7.79492 232.566 8.57129 233.211 9.55762C233.865 10.5439 234.192 11.6719 234.192 12.9414H229.827C229.827 12.3164 229.695 11.7695 229.432 11.3008C229.178 10.8223 228.787 10.4463 228.26 10.1729C227.742 9.89941 227.088 9.7627 226.297 9.7627C225.535 9.7627 224.9 9.87988 224.393 10.1143C223.885 10.3389 223.504 10.6465 223.25 11.0371C222.996 11.418 222.869 11.8477 222.869 12.3262C222.869 12.6875 222.957 13.0146 223.133 13.3076C223.318 13.6006 223.592 13.874 223.953 14.1279C224.314 14.3818 224.759 14.6211 225.286 14.8457C225.813 15.0703 226.424 15.29 227.117 15.5049C228.279 15.8564 229.3 16.252 230.179 16.6914C231.067 17.1309 231.81 17.624 232.405 18.1709C233.001 18.7178 233.45 19.3379 233.753 20.0312C234.056 20.7246 234.207 21.5107 234.207 22.3896C234.207 23.3174 234.026 24.1475 233.665 24.8799C233.304 25.6123 232.781 26.2324 232.098 26.7402C231.414 27.248 230.599 27.6338 229.651 27.8975C228.704 28.1611 227.645 28.293 226.473 28.293C225.418 28.293 224.378 28.1562 223.353 27.8828C222.327 27.5996 221.395 27.1748 220.555 26.6084C219.725 26.042 219.061 25.3193 218.562 24.4404C218.064 23.5615 217.815 22.5215 217.815 21.3203H222.225C222.225 21.9844 222.327 22.5459 222.532 23.0049C222.737 23.4639 223.025 23.835 223.396 24.1182C223.777 24.4014 224.227 24.6064 224.744 24.7334C225.271 24.8604 225.848 24.9238 226.473 24.9238C227.234 24.9238 227.859 24.8164 228.348 24.6016C228.846 24.3867 229.212 24.0889 229.446 23.708C229.69 23.3271 229.812 22.8975 229.812 22.4189ZM246.731 6.67188V28H242.352V6.67188H246.731ZM253.294 6.67188V10.1143H235.892V6.67188H253.294Z" fill="black"/>
</svg>
