<?xml version="1.0" encoding="utf-8"?>
<svg viewBox="0 0 33 27" fill="none" xmlns="http://www.w3.org/2000/svg" xmlns:bx="https://boxy-svg.com">
  <defs>
    <clipPath id="clip0_1_466">
      <rect width="33" height="26" fill="white" transform="translate(0 0.5)"/>
    </clipPath>
    <style bx:fonts="DM Sans">@import url(https://fonts.googleapis.com/css2?family=DM+Sans%3Aital%2Cwght%400%2C100%3B0%2C200%3B0%2C300%3B0%2C400%3B0%2C500%3B0%2C600%3B0%2C700%3B0%2C800%3B0%2C900%3B1%2C100%3B1%2C200%3B1%2C300%3B1%2C400%3B1%2C500%3B1%2C600%3B1%2C700%3B1%2C800%3B1%2C900&amp;display=swap);</style>
  </defs>
  <g clip-path="url(#clip0_1_466)" transform="matrix(1, 0, 0, 1, 3.552713678800501e-15, 2.0000000000000004)">
    <path d="M 6.72 10.974 C 6.587 11.028 6.428 11.028 6.296 10.974 C 5.723 10.74 5.035 11.071 5.035 11.579 C 5.035 11.9 5.373 13.224 5.898 13.224 C 6.084 13.224 6.252 13.075 6.413 12.769 C 6.448 12.703 6.567 12.703 6.603 12.769 C 6.763 13.075 6.931 13.224 7.116 13.224 C 7.638 13.224 7.98 11.91 7.98 11.579 C 7.98 11.071 7.293 10.74 6.72 10.974 Z M 7.116 13.102 C 7.007 13.102 6.871 12.964 6.744 12.722 C 6.657 12.557 6.358 12.557 6.271 12.722 C 6.144 12.964 6.009 13.102 5.898 13.102 C 5.562 13.102 5.189 11.955 5.189 11.579 C 5.189 11.161 5.754 10.891 6.225 11.082 C 6.402 11.154 6.613 11.154 6.79 11.082 C 7.26 10.891 7.826 11.161 7.826 11.579 C 7.826 11.954 7.453 13.102 7.116 13.102 Z" fill="black" style="transform-box: fill-box; transform-origin: 50% 50%;"/>
    <path d="M 7.544 11.519 C 7.502 11.519 7.467 11.546 7.467 11.579 C 7.467 11.681 7.415 11.968 7.297 12.291 C 7.286 12.324 7.309 12.358 7.35 12.367 C 7.39 12.376 7.434 12.357 7.445 12.324 C 7.566 11.991 7.621 11.688 7.621 11.579 C 7.621 11.546 7.587 11.519 7.544 11.519 Z" fill="black" style=""/>
    <path d="M 5.898 11.181 C 5.62 11.181 5.393 11.36 5.393 11.579 C 5.393 11.613 5.428 11.64 5.471 11.64 C 5.513 11.64 5.548 11.613 5.548 11.579 C 5.548 11.427 5.706 11.303 5.898 11.303 C 5.941 11.303 5.976 11.275 5.976 11.242 C 5.976 11.208 5.941 11.181 5.898 11.181 Z" fill="black" style=""/>
    <text style="fill: rgb(51, 51, 51); font-family: 'DM Sans'; font-size: 2.7px; font-weight: 700; letter-spacing: 0.1px; word-spacing: 0.2px; white-space: pre;" x="8.7" y="13.041">YOUR DENTIST</text>
    <text style="white-space: pre; fill: rgb(51, 51, 51); font-family: Arial, sans-serif; font-size: 1.8px;" x="23.488" y="10.844"> </text>
    <text style="white-space: pre; fill: rgb(51, 51, 51); font-family: Arial, sans-serif; font-size: 1.8px;" x="53.655" y="19.155">Enter your text here</text>
    <text style="fill: rgb(51, 51, 51); font-family: Arial, sans-serif; font-size: 1.6px; white-space: pre;" x="29.208" y="15.454" dy="1.767"> </text>
    <text style="white-space: pre; fill: rgb(51, 51, 51); font-family: Arial, sans-serif; font-size: 1.6px;" x="35.552" y="17.902">Enter your text here</text>
  </g>
</svg>