<svg width="14" height="14" viewBox="0 0 14 14" fill="none" xmlns="http://www.w3.org/2000/svg">
<path d="M9.86124 7.4882C10.5113 6.90893 10.9695 6.14666 11.1752 5.30227C11.3809 4.45788 11.3244 3.57117 11.0132 2.75946C10.702 1.94775 10.1508 1.24932 9.43244 0.756574C8.71411 0.263828 7.86255 0 6.99043 0C6.11831 0 5.26675 0.263828 4.54842 0.756574C3.8301 1.24932 3.27887 1.94775 2.96768 2.75946C2.65649 3.57117 2.6 4.45788 2.8057 5.30227C3.0114 6.14666 3.46958 6.90893 4.11962 7.4882C2.91703 7.90774 1.87483 8.6889 1.1369 9.72382C0.398976 10.7587 0.00172695 11.9964 0 13.2659C0 13.4606 0.0776313 13.6473 0.215816 13.785C0.354001 13.9227 0.541419 14 0.736842 14C0.932265 14 1.11968 13.9227 1.25787 13.785C1.39605 13.6473 1.47368 13.4606 1.47368 13.2659C1.47495 12.0298 1.96837 10.8447 2.84565 9.9706C3.72294 9.09655 4.91244 8.60495 6.15311 8.60369H7.84689C9.08756 8.60495 10.2771 9.09655 11.1543 9.9706C12.0316 10.8447 12.525 12.0298 12.5263 13.2659C12.5263 13.4606 12.6039 13.6473 12.7421 13.785C12.8803 13.9227 13.0677 14 13.2632 14C13.4586 14 13.646 13.9227 13.7842 13.785C13.9224 13.6473 14 13.4606 14 13.2659C13.9969 11.9941 13.5968 10.7547 12.8553 9.71953C12.1137 8.68433 11.0674 7.90454 9.86124 7.4882ZM6.99043 1.50553C7.54781 1.50553 8.09268 1.67021 8.55613 1.97873C9.01958 2.28726 9.38079 2.72578 9.59409 3.23884C9.80739 3.75189 9.8632 4.31645 9.75446 4.86111C9.64572 5.40577 9.37732 5.90607 8.98319 6.29875C8.58906 6.69142 8.0869 6.95884 7.54023 7.06718C6.99356 7.17552 6.42691 7.11992 5.91196 6.9074C5.397 6.69489 4.95686 6.335 4.6472 5.87326C4.33753 5.41152 4.17225 4.86866 4.17225 4.31333C4.17225 3.94461 4.24514 3.57949 4.38677 3.23884C4.5284 2.89818 4.73598 2.58865 4.99767 2.32792C5.52619 1.80136 6.243 1.50553 6.99043 1.50553Z" fill="black"/>
</svg>
